<svg viewBox="0 0 1920 609.31" xmlns="http://www.w3.org/2000/svg"><g fill="#000"><path d="m161.12 177.36a1.16 1.16 0 0 0 .36-.38 1.91 1.91 0 0 0 -.44.3z"/><path d="m1920 7.66s-32.6-9.26-40-7.42c-17 4.24-30.75 36.76-43 48.76-25.42 24.91-18.36 63.25-45.56 85.86-3.91 3.25-8.91 5.7-7.87 12.6.2 1.33-.91 2.92-1.5 4.35a285.59 285.59 0 0 1 -18.63 37c-2.46 4.13-4.72 8.48-8.48 11.57-2.15-2.23-3.83-1.77-5.13 1l-2 .53c-3.14-.24-5-3.2-7.69-4.28-1.6 3.52.94 4.44 3 5.29-.66 2.73-3.19.61-4.1 2.31.88 1.68 2.8 2.84 2 5.14l-2 .18-3-.93-.3-.43-.49.06c-4.8-4.42-11.94-1.22-16.72-5.74 0-.05-.34.09-.43.21-2.52 3.43-5.83-.07-8.56 1.1-2.36 1-5.55 1.88-6.92 2.94-4.26 3.33-10.7.22-13.82 6.28-2 3.88-10.46 1.06-9.18 9.16a2.38 2.38 0 0 1 -1.26.56c-4.69.42-4.83 3.8-4.43 7.54l-.78 1.32c-4.31 1.69-3 5.9-3.66 9.21-.44 2.26-.18 3.64 2.67 2.8 2.6-.77 6.19-.73 6.81 2.23.75 3.55 2.73 3.26 5 4.24 3.59 1.57 6-2 9.16-1.46 1.69.67 1.92 1.17.22 2.49-21 16.37-42.86 30.8-68.2 38.44-6.27 1.9-12.21 5.18-19 5-1.45-1.23-1.74.55-2.51 1.09l-2.37.1c-2.45-1.19-1.59-3.57-1.31-6.72-3.61 4.51-7.6 3.85-11.1 2.89-2.4-.66 0-3.72-.64-5.57l-4.33.74a.45.45 0 0 0 -.37-.62c1.15-1.57 1.77-4.71.27-4.6-4.17.31-6.45-4.54-11-3.26-3.64 1-8.1 0-11.54-.6-3-.52-7.45-1.18-10.59-3.73-.55-.44-2.24-1.51-3.07-.07-.47.81 0 1.88.77 2.78 2.79 3 .54 3.7-1.91 4.14s-6.32 0-6.94 1.37c-2.07 4.46-4.48 2.06-6.87 1.3-1.84-.59-3.12-.51-4.58 1.26-2.3 2.78-5 2.94-7.68.08a16.77 16.77 0 0 0 -3-2.06c.75 3.82-2.65 7.44.83 10.81 1.06 1-1.56 1.28-2 2.38l-1.86-.26c-1.51-3.7-2.79-7.35-8-4.87a9.91 9.91 0 0 1 -7.21.57c-4.55-1.82-11.16-2.05-15.36.76a2.64 2.64 0 0 1 -2.15.5c-4.09-.56-7.25 5.54-11.83 1.91 0 0-.37.16-.38.27-.35 4.29-4.16 4.95-6.7 6.55-2.94 1.84-7.16 2-5.93 7.4a.82.82 0 0 1 -.44.19c-6 0-4.68 5.38-5.88 8.91l-.29.3c-4.79 2.95-2.71 7.85-3.47 12.13 7.86-1.39 9.32-.62 10.68 5.39-3.2 2.78-6.36 5.61-9.6 8.33-22.9 19.19-48.69 31.5-77.75 35-17.72 2.13-35.48 3.69-52.72 8.78-15.66 4.62-31.8 7.87-45.72 17.62a7.82 7.82 0 0 1 -3.72 1.25c-13 1.13-26 .59-39-.16-18.86-1.1-37.64-3.6-56.57-4.16-10.57-.31-21.11-2-31.68-2.91-9.55-.85-18.89-3.37-28.57-3.35q-87 .17-174 0c-1.67 0-3.34.06-5-.08-25.8-2.24-51.71-2.68-77.44-6.12-13.9-1.85-27.81-3.22-41.37-7.34-30.39-9.24-61.22-13.26-92.56-6.42-9.08 2-18.34 2.15-27.36 4.46-16.62 4.24-31.25 14.12-47.81 18.48a38 38 0 0 1 -11.65-8.41c-.3-.32-1.17 0-1.81 0-.36-3.71-8.14-2.9-4.21-9.41-2.79 2.13-4.87 2.76-7.76 2.28-3.75-.62-6.92 2.37-10.12 4.2-2.66 1.52 1.28 4-.15 6-.14.21.18.74.06 1-1.63 3.87.32 4.62 3.48 5.62 3.59 1.14 8.57 1.86 7.21 8.25-1.7.66-3.58 1-5.07 2-11.3 7.57-23.73 12.86-35.39 19.7-3.67 2.15-7.43 4.66-12.05 3.68-1.51-1.37-3.48-1.12-5.22-1.43-15-2.62-28.21-11.39-43.25-14-6.71-1.15-13.26-3.28-19.87-5-1.89-.5-3.34-.9-3.23-4 .1-2.82-.11-6.84-4.93-6.68-1.15 0-3-1.88-3.44-3.28-1.79-5.22-4.58-8.21-10.36-5.86.31-2.32 3.13-2.61 1.87-4.49a3.5 3.5 0 0 0 -3-1.4c-3 1-6 .61-9 .8-3.43.21-6.32-2.19-5.57-5.63.55-2.58-2.62-7.48-5.21-7.8-3.9-.48-5.24-2.44-3.66-6.39a11.84 11.84 0 0 0 .44-2c-3.87.07-5.21-5.48-9.55-4.64-3.21.62-7.48 1.15-9.16-1.76-3.07-5.32-7-.73-7.67 0-3.92 4.46-8.4 6.62-14 6.54 1.13 1.79 6.84 3.87-.48 5.09-1.93.32-1.51 2.66 0 4.06 4.65 4.39 4 9.73.12 15.16-2 2.75-4.07.06-5.26 1.75-2.54 3.6-6.23 2.67-9.58 2.9-2.13.14-4-1.59-3.2-3.57 1.26-3.23-.12-3.46-2.3-5a11.32 11.32 0 0 0 -7.06-2.24c-2-.05-4.7.7-6.06-1.5-2.91-4.68-5.09-.76-7.17.65-3.68 2.49-7.38 4.58-11.83 4.83.17 1.22 5.69 2.65-.12 4.21-2.33.63-2.08 2.7-.28 3.78 2.86 1.72 2.85 4.6 2.42 7.07-.74 4.23.06 6.61 4.48 6.17 0 2.2-2.6.69-2.51 3l7.7 4.62c-5 2.16-9.58 5.21-14.53 6.08-7.84 1.36-11.27 6.05-12.37 13.67a196.78 196.78 0 0 1 -24.12-5.67c1-7.58-.7-14.75-3.48-21.56-6.65-16.26-12.67-32.73-18-49.56-2.51-7.95-7.56-15.06-11.11-22.75a17.41 17.41 0 0 0 -5.26-6.23 15.32 15.32 0 0 1 -5.35-7.89c-.27-.7-.54-1.4-.8-2.11a11.36 11.36 0 0 0 -4.1-7.26 3.24 3.24 0 0 0 -2-2.2c-.72-.95-1.37-2.63-2.18-2.72-10.73-1.17-8.46-9.15-7.73-16.28.7-6.87 1.5-13.71 2.25-20.56 2.15.06 3 4.08 4.82 1.36s3.55-1.22 5.54-.46c1.49.57 2.35 3 4.3 1.95 2.49-1.33-1.35-3.39.4-5 1.68.21 3.18 1.87 5.28.92-2.8-5.53-8.12-9-11-14.78 4.44-1 5.2 6.85 10 4.11-.89-3.17-4.35-3.29-5.56-5.81 1-1.07 2.24-.68 3.44-.56l-.13-.39c-1.79-2.16-7.72-.05-5.18-6.83.8-2.16-2-6.06 1.47-8.69a5.14 5.14 0 0 0 -1-.35c-.32 0-.76 0-.95.17-3.3 3.4-5.53 3.29-6.35-2-.37-2.34-2.3-3.11-3.69-2-3.85 3-7.44 3-11.25.24a10 10 0 0 0 -.75.9c1.52 2.86 4.07 5.44 3.56 9.57l-6-1.28c1.38 3.09 5.07 3.4 5.7 6.79-2.84.79-5.76.22-8.21 2 2.65 1.78 2.81 1.95 2.17 3.18-.77 1.51-2 2.72-3.63 1.82-3-1.7-5.77-3.77-8.94-5.88 2.16-1 5.05-.26 5-2.59s-2.82-1.82-4.49-2.38c-.82-.28-2.07.44-2.49-1.27l4.31-2.81c-3.36-2.65-9-1.44-10.69-6.64-1.08-3.41-2.75-3.07-5.05-2.37 0-3.54-1.57-4.7-4.72-3.56a4 4 0 0 1 -1.34.32c-.45 0-.23-.31-.18-.72.4-3.37-1.48-2.07-3-1.57-1.87.63-3.73 1.24-5.6 1.85-7.53-1.76-7.55-1.79-4.06-5.89 1.22 0 2.8 1.59 3.51-.72 1.86-6.1 6.74-10.51 8.35-16.77-2.15-1.33-3.71.81-5.51 1.25s-2.91-.15-3.51-1.5c-.19-.42 2-1.78.31-2.77-1.3-.77-2.29.93-3.47 1.39s-1 2.45-2.63 2.41c-1.35-4.37 4.24-9.49-1.49-13.54 2-.41 4.72.32 5.17-2.27.74-4.28-4.26-7.81-8.7-6.44-.21-.42-.39-.86-.63-1.26a13.32 13.32 0 0 0 -.91-1.22c.13-.09.25-.19.39-.27.95-.58.79-1 .09-1.85s.36-2 .95-1.43c3 2.92 6.08-2.38 9.05.4.59.56 2.32-.63 2-1.52-.36-1.16-.71-3.24-2.34-3-1.47.17-3.31-.35-4.42 1.46-.89 1.44-2 1.14-3.42.58-3.87-1.52-7.84-2.75-11.77-4.09-.63-.41-1.63-.54-1.24-1.74s1.24-1.35 2.33-1.12c.57.13 1.37.88 1.83-.31a11.17 11.17 0 0 1 -8-6.78l.88-.64-.77-.4-.15-2.13c1.75-.36.5-3.52 2.72-3.44l-.36-2.08.61-.85c3-1.93-1.48-1.8-.76-3.11 1.27-1.32 3.64-1.55 3.14-4.54-.58-3.38-2.94-1-4.34-1.68-1.2-.6-2.84-.2-3.57-1.95-1.09-2.58-2.48.08-3.76-.2-1.93-.43-1.17 1.33-1.52 2.35-.93 2.74 1.27 4.39 1.74 6.61l-1.8.28-2.93.06c1.3-2.43.67-4.25-2-3.65a3.9 3.9 0 0 1 -3-.52c-.54-.5-.29-2.72-1.87-1l-.22 2.06c-1 .29-2.09-.48-2.94.52h-.21a.82.82 0 0 1 .21 0c-.18.74.73 1.48.35 2.22.86-.47 1.07.62 1.49 1.23-.75 0-1.78.64-1.92-.83a1.32 1.32 0 0 1 -1.27-1.7 1.06 1.06 0 0 1 .56-.91c-1.86-.08-2.63-2.12-4-3s-3-1.18-3.92-.18a2.2 2.2 0 0 0 .76 3.67c-.69 1 .73 3.17-1.55 3.11a2.35 2.35 0 0 1 -2.44-2.67c.4-3-1-4-3.45-4.27a1.9 1.9 0 0 1 -1.54-2.29c.75-.28 1.94-1 2.18-.78 2.24 2.41 3.88 1.59 5.35-.85-2.14-.72-1.66-5.62-5.5-3.8a1.47 1.47 0 0 1 -2.13-1.41 1.7 1.7 0 0 1 2.19-1.56c6.65 2.31 8.64-3.17 11.31-7.67l-4.17 1.35a10.62 10.62 0 0 1 -1 .6s-.2-.2-.3-.32l.95-.66c2.05-1.74-1.05-4.13 1.62-6.2-4.39.83-7.65 3-9 5.61-1 2-1 3.2-2.43 1-6.88-10.42-17-16-27.33-21.5a65.21 65.21 0 0 1 -15.21-11c-1-1-3.79-2.15 0-3.68 2.11-.86 0-2.22-.36-3.35-.42-1.28-.82-2.55-2.18-.87-1.16 1.43-3-.68-4.06 1-2.53-1.76-.78-3.21.29-4.71 1.45-.12 2.9-.31 4.35-.33 5.74-.08 6-.42 3.58-5.8 7.85 2.41 8.08 2.43 9.19-5 .25-1.72 1-3.66.47-5.63-1.63 0-1.74 4.07-4.16 1.75-1-1-2.17-2.2-.79-3.5 3.68-3.49 2.87-6.34-.73-9.11a2.08 2.08 0 0 1 -.56-2.82c2.5-4-.5-7.74-2.46-8.68-4.1-2-5.68-6.16-9.27-8.83-1.7 4.75-5.88 4.35-9 3.54-2.55-.65-4.09.68-5.79 1.32-2.25.84-4 .74-3.46-1.45.75-3.23-.78-2.68-2.56-2.67a24 24 0 0 1 -3.7-.52c.27 5-.47 6.39-2.32 5.08-3.88-2.74-5.46 1.79-5.53 3-.31 5.36-4.25 5.35-7.37 6.69a2 2 0 0 0 -2.3 1c-.81-.24-1.56-.25-2 .69l-2 .29a1.31 1.31 0 0 0 -2.06.87c-1.68-.54-2.72.57-3.78 1.63-1.92-.24-4.63-2-4.06 2.44-.1.5 0 1.13-.75 1.18-1.69-1.15-2.7-.42-3.29 1.36-.67 2-.37 3.71 1.64 4.71a1.81 1.81 0 0 0 1.21 2.38c-4.88 1.76-9.07-2-13.74-1.9l-4-1.15c-.07-2.92 2.32-2.29 3.74-3.12-5.91.1-7.83-4-8.27-9.4-.53-4.77-3.63-4.48-6.7-4.27-2.63.17-7.93-41.84-7.93-41.84v601.65h1920zm-1548.56 416.34a2.48 2.48 0 0 1 -.87-.36l.72-1.08c.44.24.88.33 1 .55.19.66-.29.89-.85.89zm-93.44-148.37v.57l-.62-.36zm-128.52-118 .39.17-.35.52-.37-.34zm9.22 25.66-.93.6zm26.44 91.06 1.79.07 2.54 2.94c-.36 2.41-.08 5.18-3.36 5.93.02-3.05-3.71-5.66-1-8.97zm-13-77.82-5 1.18c-1.11-.63-3.33.14-3-2.36l2-1.08c1.72.6 2.49-1 3.7-1.6l1.4-.92c.66-.14 1.55.42 1.93-.61.77 2.62 3 2.14 4.92 2.31-1.35 2.36-4.93.29-6.01 3.05zm-1.9-9.28-.11.11zm72.72 104.7a1.14 1.14 0 0 0 -.06-.25 1.14 1.14 0 0 1 0 .24zm-3.06.78c.07-.81.15-1.62.22-2.42a6.76 6.76 0 0 1 2.17.76 1.73 1.73 0 0 1 .47.4 1.73 1.73 0 0 0 -.47-.4 6.76 6.76 0 0 0 -2.17-.76c-.07.8-.15 1.61-.22 2.42a1.53 1.53 0 0 0 1.26 1.55c.56 1.41 2.51 2.31 1.45 4.5 1.34-2.54 6.31-1.64 5.2-5.64-.64-2.33-4.14-3-4.66-6.27a20.86 20.86 0 0 0 10.61-5.15c-2.63 3.28-.51 6.6-.51 9.8 0 2.31 1 4.93 4.36 4.78 3.18-.15 3.78 1.47 3.46 4.37-.85 7.73-1.42 15.5-2.11 23.25 0 .12 0 .25.05.38 0-.13 0-.26-.05-.38l-3.81.8a2.9 2.9 0 0 0 -3 .65c-4.24 2.15-8.42 1.52-12.58-.24-2-4.91-7.52-4.87-11-7.7-.41-.33-.6.88-.54 1.51h-.27l-.16.21c-.25-1.05-.16-2.26-1.36-2.85-.47-3.83 2.76-1.9 3.39-1.58 4.06 2 5.64.74 5.54-3.51l1.64-.37-1.15-1.29c-.07-3.7-2-5-5.5-4.26l-.12.17a.78.78 0 0 0 0-.14c.75-1.69-.82-2.21-1.62-3.07-1.67-1.8-4.44-3.37-.49-5.71 1.47-.87 1.54-2.37-.1-2.95s-1.25-1.39-.76-2.43a2.83 2.83 0 0 1 1.21-1.79 2.83 2.83 0 0 0 -1.21 1.79c1.47.31 2.93.56 4.05-.85h2c2.98-1.37 4.88.51 6.72 2.41zm-6.8-3.84a5 5 0 0 0 -.49-1.22 5 5 0 0 1 .39 1.21zm-3.5.45a2 2 0 0 0 -.56-.13 2 2 0 0 1 .5.12zm-26.53-58c0 1.3-.94.56-1.51.61-.14 0-.29-.09-.44-.14zm-5-21v.64l-.58-.23zm1.73 63.23c1.93 1.41 7.21 0 7.94-2.18.25-.77-.62-2.37 1.09-1.9 1.13.32 2 1.5 3 2.35s.29 1.64-.34 2.06a40.33 40.33 0 0 1 -10.06 4.59 1.31 1.31 0 0 1 -1.17-.26c-1.78-2.41-1.75-2.41-4.66-.13a4 4 0 0 1 -1.43.37 6.12 6.12 0 0 1 -2.83-3.14 5.67 5.67 0 0 1 8.37-1.7zm-12.24-59.21c-3.38 2.42-3.38 2.42-7.42-1.81 2.86-.55 4.44 2 7.33 1.87zm-42.31-55.59c.44.18 1 .33.66.93a3 3 0 0 1 -1 1c-.8.51-.75-.35-.77-.65a1.07 1.07 0 0 1 1.02-1.22zm-61.25-77.33a5 5 0 0 0 .1-1.29 5 5 0 0 1 -.1 1.29zm-14 9.91-.39-.11zm-1-.27a.57.57 0 0 1 -.26-.13.57.57 0 0 0 .35.13zm388.34 315.57c.87 1.32-.16 1.89-1.14 2-2.86.34-5.22 2.38-9 1.79 2.17 3.14 4.19 4.14 7.12 3.62 1.79-.32 3.63.39 3.67 2.36 0 1.59-1.71 2.38-3.26 2.46-2.46.14-4.94 0-8.13 0 1.38-2.13 2.26-3.26 0-5.22-2-1.73-2.79-5.06.93-7.11 2.36-1.29 8.78-1.47 9.81.1zm-11.14-9.65c2.29-.1 1.43 1.64 1.55 2.8.3 1.29.27 2.48-1.49 2.25s-1.58-1.86-1.76-3.1a1.61 1.61 0 0 1 1.7-1.95zm-5.93 13.4c.6.16 1.79-.46 1.75.89a2.85 2.85 0 0 1 -2.25 2.91 1.24 1.24 0 0 1 -1.71-1.21c-.06-1.43.23-2.69 2.21-2.58zm-8.33 5c-2.25.81-3.87.31-6-.94 2.66-1.88 4.38-1.61 6 .96zm-10.2-5c1.2.09 2.51.5 2.55 1.75 0 2-1.61.77-2.45 1-1.14-.17-2.69.07-2.69-1.45s1.43-1.36 2.59-1.26zm-8.37-4a3 3 0 0 1 .66.31l-.36.35-.63-.35c.11-.06.25-.28.33-.26zm-14.63 17.27c-3.08 1.92-6.25 1.38-10.33 2.78 3.59-3.98 6.5-4.2 10.33-2.73zm230.62-20.43a13.65 13.65 0 0 1 .91 1.71c0 .09-.64.45-1 .68a9.77 9.77 0 0 1 -1-2c-.15-.38.24-.78 1.09-.34zm-.41 15c-1.08-2.19.84-3.66 1.45-5.38.71-2 2.72-2.14 4.57-1.79 2.4.46 2.54 2.11 1.86 4.05zm925.94-118.38c3.93-.19 2.4 2.66 3.23 5.29-2.65-1.57-5.88-.84-6-4.25.01-1.34 1.66-.9 2.77-.99zm-38 7.95c.33-.74 1-1.18 3-.93-.12-.36.34.31.22.86a1.43 1.43 0 0 1 -1.81 1.06c-.51-.1-1.44-.8-1.39-.94z"/><path d="m160.34 174.9a4 4 0 0 0 .58 0 1 1 0 0 0 -.58 0z"/><path d="m161 177.28s0 .05 0 .08h.07z"/><path d="m219.43 226.58c1.08.26 2.87-.76 2.33-2.39-.25-.75.12-3-2.23-2.32a9.31 9.31 0 0 0 -6.45 6.13c2.14-.86 3.92-2 6.35-1.42z"/><path d="m184.76 182.2a.88.88 0 0 1 .05-.15h-.14v.15z"/><path d="m187.15 186c1.13-.13 3-1 2.6-2.39-.79-2.63-3.12-1.58-5-1.4-.84 2.25-.88 4.18 2.4 3.79z"/><path d="m285.18 275.68-.44.08.41.17z"/></g></svg>