<svg viewBox="0 0 1918.97 592.15" xmlns="http://www.w3.org/2000/svg"><path d="m105 46.64c-12.57-.16-105-29.64-105-29.64v575.15l1919-1.68-.13-573.47s-160.95-3.11-207.58-17c-34.13 26.33-46.12 18.76-79.67 13.19-25.18-2.17-46.29 4-72.09 4.19-56.43 1.63-47.19 21-70.11 26.21-218.86 37.69-262.02-40.66-328.42-32.24-106.78 28.72-56.18 11.31-117.65 8.83-40.92 16.55-76 25.57-116.69 26.48-117.31 6.34-23.51-30.46-111.66-28.31-6.34-9.24-12.51-.38-20.73 4.42-11.12 7.44-23.88 4.2-28.53 19.84-9.74 15.61-9.99 32.88-18.74 49.07-10.48 7.1-16.23 39.58-5 33.55-37.94 35-63 25.46-93.59 33-51.41 30-53.92 23.48-96.16 11.93-68.53-14.38-63.37-72.75-126.86-49.16-291.12 58.83-137.05-33.66-320.39-74.36z" fill="#000"/></svg>