<svg viewBox="0 0 1920 955.5" xmlns="http://www.w3.org/2000/svg"><path d="m1920 693.87c-87-5.3-220.27 1.14-227.06 5.19-25.09 15-116.94 61.54-85.65 26.8-7.1 3.62-9.06 15.53-12.18 15.07s4.89-17.4 9.68-20.51c-5.57 4.58-18.81 27.73-15.8 12.24.51-2.63-10 21.59-5-3.37-1.88.12-3.18 11.56-6 12.25-24.12 5.92-81.12 19.81-131.19 26.74-66.31 9.18-65.79-9.79-108.88 4.78-48.24 7.57-65.76.45-78.93 31.11-18.75-10.07-21 1.88-38.48 2.08-9.41 7-4.19-30-12.2-8.18-7.46 16.45-55-27.81-20.47 5.83 1 1.13-1.08-.08-4.88-2.26-8.23-4.83-20.57-10-31.67-7 70.33 14.41-13.37 20.05-28.3-15 26.53 62.29-50.41-26.3-36.43-3 3.4 7.77-18.43-2.33-29-12.37s32.32 48.11-5.12 9 30.55 37.13-24.29 7c28.84 19.57 28.7 19.54-10.33 11.13-39.55-19.12-370.64 23.77-414.82 32.76-13 2.64-269 24.36-315.18-64.4 2.66 5.1-68.92-26.2-25.68-17.4-6.42-3.87-33-1.53-18.53-4.5 21.71 1.76-29.56-10.67-21.09-7.65 11.46 19.47-21-12.54-12.51-5.44 10.78 23.75-54.49-30.52-58.31-22.76-9.1 2.29-6.7-12.38-4.7-15.55s-16.63 17.54-19 15.88c-3.41-2.36-4-26.48-6-30.71 2 26.48-6.67 29.31-10 26.48-2.37-2 0-15.89 5-26.48-22.9 28.67-117 22.24-117 22.24v261.63h1920z"/><path d="m1429.56 614.46c-6.08-51.32-24.6-92.6-33.12-97.4-14-7.86-42.69-6.71-43.62-26.1 23.81-11.39 27.5-25.39 26-35 9.76 2.51 13.76-3.14 19.1-10.21s13.08-28.05-3.49-26.21c-11.27 1.25-15.34 12.64-16 15.29.4-1.74.08-5.88.11-9.56l.83.22s.95-6.9 1-11.27l.54.15s18.12-36.49 14.74-66.86c-5.35 7.27-10.18 18.86-14.06 30.22 2.08-12.12 3-25.82.45-38.3-5.7 8.94-10.24 23.36-13.55 36.85 2-13.84 2.73-30.23-.76-45-4.78 8.62-8.37 22-11 35.13 0-12.76-1.28-26.83-5.64-39.37-4.75 11.13-7.06 29.11-8.17 45-1.35-20.11-4.62-44.6-12.31-59.29-8.6 19.5-9.38 42.32-7.93 60.56-3.63-15.91-9.19-34.1-17.07-44.68-4.38 14.83-3.49 31-1 44.78-3.83-14.53-9-30.32-15.14-39.89-2.13 14-.37 29.41 2.44 42.66-4-11.44-9-23.14-14.67-30.54-3.62 25.7 7.52 50.52 7.27 50-3.76-8.52-10.27-30.92-23.58-45.8-1.7 26.75 14.8 57.26 18.89 64.37l-.51.2s1.65 9.65 5.91 13.68l.67-.39 2.07 7.13c-.86-3.48-3.8-9.28-12.61-13.39-11.22-5.23-16.27 12.91-9 23.78s17.06 16.15 22.56 14.62c.52 19 21 29.21 36.24 33.53 1.25 17.38-23.22 19.5-39.44 26.78-16.41 7.37-24.54 64.36-28.24 81.08s1.17 42.89 4.32 56.64-1.9 31.9-1.75 37.43 6 17.84 10.33 23.26 15.52 10.65 16.83 7.85c.12-.2.21-.4.31-.6 1.83 10.58 4.3 20.2 7.25 23.93-1.27 4.18-6.5 15.4-5.19 12.6s8-9.91 6.76-5.72c-.9 3-.41 5.22 1.41 4.19 3.56 41.42 10.67 56.52 10.21 70.23-.51 15.22 4.09 18.14 2.34 23.62s-3.54 12.35-2.21 19.32-6.66 12.24-6.84 17.77 2.89 7 6.24.21c-.13 4.15-1.88 9.63 1.34 7s1.79-6.87 3.4-8.2-1.93 11 2.8 9.79 3.4-8.2 3.4-8.2 2.47 11.16 5.59 11.27 3.11-17.9 5.68-12.28c.9 2-.75 13.83 5.55 12.65s5.42-22 4-27.56-.87-20.8-5.32-27.87 2.21-19.32-.27-38.78c-2-15.59-1.93-32-1.46-49.28.76 2.42 1.81 4.81 3.11 4.77 2-.06-1.38-8.84-2.82-14.12 0-1.24.08-2.47.12-3.72l.45-1.56c2.28-4 6.83-15.66 6.19-38.86a10.44 10.44 0 0 0 2.18-.29 8.11 8.11 0 0 0 2.64-.53l-.17-.32c.48-.22.94-.45 1.37-.67a5.37 5.37 0 0 0 4-1.5 2.76 2.76 0 0 1 1 .24c2.81 1.31-2 27.75 8.21 46.85-2.5 9.76-5.08 16.76.26 9.69a7.64 7.64 0 0 1 .52-.62c1.23 18.14 2 35.36.58 51.75-1.74 19.55 5.38 31.53 1.2 38.76s-3.1 22.42-4.27 28.06-1.24 26.45 5.09 27.38 4.24-10.86 5.06-12.84c2.36-5.72 3 12.27 6.14 12s5.16-11.46 5.16-11.46-1.06 7 3.71 8.06.77-11.16 2.43-9.89.4 5.52 3.71 8.06 1.36-2.87 1.07-7c3.61 6.68 6.63 5.07 6.24-.45s-8.59-10.49-7.52-17.5-1-13.8-2.94-19.22 2.53-8.5 1.44-23.69c-1-13.84 5.72-29.4 7.62-72.05 1.23 1.61 2.6 2.84 3.58 2.32 2.72-1.46-3-6.84-3.07-11-.1-3.32 4.93-13.89 6-27.17 30.34-6.69 28.58-19.19 23.87-45.64-1.9-10.92 7.01-48.7 5.21-63.88zm-148.1 1.28c1.19-7 10.57-18.29 15-58.56-3.68 67.94.47 67.83 2.08 76.09.45 2.34.4 6.46.07 11.32-2.42 4-8 2.75-9.49-1.37s3.3 19.3 4.79 23.41c.43 1.16-.22 4-1.31 7.89l-.55-.23c-2.81-1.3-2.69 2.85-.28 3.07-.9 3-2 6.41-2.94 10-1.34-7.25-5.36-11-8.75-20.33-4.48-12.36.18-44.33 1.38-51.29zm-1.46 98.34c-5.61-2.61-6-15.06-6.14-22 6.92-.19 10.22 19.1 11.6 19.07.32 2.67.68 5.43 1.09 8.19a16.7 16.7 0 0 0 -6.55-5.26zm113.63-39.52c3.3.17 5.39-9 .48-5.66l-.36-.2c.83-11.18 6.16-22.88 3.57-18.75s-4.49-12.33-7.11-6.72c-.45 1-.86 2-1.24 3a.59.59 0 0 0 -.07-.16c-1.46-2.73-1.91-19.33.4-36s-2.74-49.76-1.59-58.1a136.59 136.59 0 0 0 8 41.31c17.89 46.59 10.9 44 10.12 66.18-.75 21.58-7.06 31.49-8.53 37.15-1.72-7.39-3.47-13.97-3.68-22.05zm9.62 40.31a16.81 16.81 0 0 0 -2.57 2c-.05-1.09-.12-2.19-.24-3.29 0-.47-.11-.9-.16-1.35h.12c2.73-1.45 8.12-7.14 11.89-21.09 3.13 13.7-2.29 19.39-9.05 23.73z"/><path d="m1591 .68c-2.65 1.22 10.2 27.92-1.72 13.52-1-.43-2.16-1.35-3.45-.77 2 2.93 8.62 19.37 1.18 14.3-12.13-24.44-8.71 8.07-22-16-3.9 1.07 2.49 21.78-4.18 13.21-7.34-24.63-3.64 38.18-15.83 16.36-1.63-3 2.57-21.47-2.61-10.73 0 2.91-.45 5.4-4 1-.85-11.62 1.35-24.67-7-8-7.2-2.39 7-15.69-2.29-15.67-5.76 17.1-8.27-13.48-18.57-1.12 33.73 20.22-11.81-.05 6.63 14.12 32.3 3.65-18.17 5.73 11.26 8.61 20 4-2 3.5-3 10.86 36.2-7.76 17.48 40.84 13.27 24.29 2.53-8.54 7.34-22.27-3.77-7-1.93-4-2.65-9.54-10.86-8-7.62 2.21 13.87 7.13 7.5 9.79-2-2.68-9.21 6-4.28 5.9 6.95-6.82 14.49 8.09 11.32 11.89-10.37-7.34-31.16-11.9-21.2-24.82-6.23-18.42-1.71 5.29-8.65.34-1.82-2.39-1.45-1.72.24-10.26-9.53-12.5-3.49-1.09-8.23 2.41-4-3.63-6.86-6.58-13.36-3.36 22.28 9.51-9.78 11.87 18.3 10.52 9.81 4.63-13.09 3.23-7.17 7.78 23.58-5.75 22.34 22.68 4.29 5.11-14.54.2-3.19 3.81 1.61 8.26-1.46 8.39-23.11-1.42-12.9 8.16 2.23 1.14 1.17 2.15-4.16 8.68-1.74 2.74-4.79-16.89-4-25.25 4.79.53 10-10.24.54-5.8 6.34-4.39-8.55-24.88-3.15-4.09 1 11.5-1.07-5.81-12.29 1.43-18.37-46.18 25.82 7.2 2.17-25.67 1-9 17.26 12.14 14 .75.93-.35-6.44-4.11-2.38-5.67 12.16-.77 18.32-16.37-2.16-1.47-3.75-.5 3.31-8 .39-12.44-14.9 36.45-18.6-12.1-19.49 12.66 6.24 8.13-3.75 35.93-10.78-5-8.42 12.06-5.21 1.9-6.49-9.64-4.52-5.91-2.47 10.91-6.08 8.36-5.59-7-24.44-1.38-12.68 1.09 3.19-.69 15.1-1.72 12 3.41-4.54-4.09-17.57 1.41-6.76 3.33 4.21 1.92 10.54-4.08 14.1 3.25 2 2.3-17-3.44-8.55 2.83 1.55 4.47 25.77-4.06 15.59 19.43-14.06-7.6-18.94-6.07-30.21-4.41 3.66-2.33 1.23-21.92-3.49-8.07-.09 2 3.7 16.58-2.94 8.21-9.83-10.75-5.15 1.12 1.58 10.32.85 10-2.5-5-14.56 4.73.3 5.18 13.1-4.65 19.17 10.92-1.67 7.41-35.17-19.77-24-5.78 13.79 11-14.62-1.3-20.24 6.47 19.32 3.22-4.83 9.65.82 20.19 6.23 3.55 7.68-21.35 9.2-11.16 2.89 19.18 3.57-9 13.42-9.49-9.54 23.93.74-1 10.58 1.17 49.13 10.56 7.08 7.57 12.92 19.62 31-21.31-2.8 8 14.28-1.62 1.32-6.29 19.47-13.4 8.55-5.46-15.73 18.31 19.86-14.71 24.54 7.31-12.47-8-24 5.83-7.76 1.3-4.1 7.95-14 3.82-9.22 17.41 21.93-29.1 1.63-3.88 12.84-2.89 7.56-28.66 8.74-3.24 37.22 25.16-2.35.06-20.26-12.37-10.12.92-3.33-.46-3.45 1.37-6.59-1.2-4.92-8.5-14.85-11.15-10.28.88-2.86-2.33-16 4-14.37 6.93 7.16 3.41 27.9-14.32 13.72 4.82 0 1.31 0 1.62 3-.25 24.24-22.62.46 11.68 17.46-2.65 16.13-28.66 44.34 66.11 18.75 49.6-26.82-5-.45-8.67-5.72-12.91-4.43-.91-13 6-11.51-.74 29-15.83-14.18 6 3.91-15-2.57-19.34-1.66 17.72-19.93 2.84.92 10.38 11.27 5.52 12.09 14-4-1.43-20.65 6-5.84 5.69 7.86-4.17 26.51 10.16-2 6.34-6.1-.39-22.16-21.31-17.19-29.47 2.79 3.24 16.18 2.38 9.9-1.11-14.87-3.52-.94-4 2.85-10.72-1.75-.13-9.14-2.38-11.7 3.54-4.16 7.38-6.34-20.85-7.73-1.66 15 27.27-34.65-18.8-16.13-17.5-7.51-4.41-14.14-16.2-1.3-5.5 17.73 3.09-20.19-10 12.29-5.85 1.09-6.07-4.58-4.56-15.16-5.48 6.82-7-.16-18.11-4.89 1.52-3.83 11-5.56-.87-13-2.81-1.67 3.75 26.53 37.2-6.06 10.92-8.39-5.93 6.47-18-2.93-19.17-7.22 25.77-13.45-30.78-14-6.11 6.52 11.5-13.31-9.14-19 4.38 2.46-.64 20.34-2.15 12.64 1.63-18.88 7 14.76-.65 11.21 9.14-25.24 2.35 9.15 0 9.21 12.31-2.59 6-25.81-15-20.47-4.84 4.36 2.8 3.82 4.75-4.69 4.42-1.14-1.77-22-1.58-8.14 2.62 10.11 1.53-12.78 7-5.22 16.49 21-29.42-1.33 14.44 17.73-15.73.88-.48 5.18-2.3 1.55 2.38-6.44 14.64 4.89-12.78 28.8 5 15.64 2.12 13.18 9.22-11.38 1.28-14.35 5.71 28.37 5.4-14.72 14-14.11 11.08 3.67 3 7.37 4.4-5 2.82-14.44 23.7-5.1 18.3 13.36-43.45-2.19 25.48 15.74-24.08 2.89-1.49 6.87-3.82 4.07 1.3-1 27.88 6.54-33.76 34.48 8.89 20.12 12.9-3 20.13-16.55 14.12-7.73-.56-13.11-19.26-23.73-3.63 24.41 1.09-3 1-10 12.53-1.32 4.82-1.25 5.32 4.85 1.09 10.11-10.4 13.49 15.14-41.06 10-7.39 2.21-10.25-17.13-17.16-8.84 3.12 3.29 6.05 10.1-.85 8.9-1.44-.7-4-13.85-12.56-6.21 16.43 9.24-25 14-10.08 19.14 25.27-19.62 1 11.66 18.18-2.45 5.22-7.45 9.34-12.43 5.37 5.41-1.73 3.66 21.37-23.07 22.39-9.89-18.94 13.53-37.51 26.56-50.38 45.35.46 5 5.82-3.81 11-6.55-2.25 18.59-4.57 7.09-14.11 19.08-2.11 8.62 5.28 1 10.82-1.77-2.27 4.26-5.46 32 1.07 23.42 3.34-7.31 4.15-5.86 1-14.42-1.23-18.89 2.66-1.28 9 1 3.43-7.55-6-10.36-6.14-17.85 4.86-14.34 5 18.25 17.55-9.55-.15 1.42 10.35 32.37 10.29 12.9-.09-6.22-10.83-6.09-7.08-14.37-.61 1.64 17.83 12.51 9.73 2.16-10.92-9.35-18.63-17.92 1.87-8.88.69-7.79-18.06-6-7.86-18.58 14.25-.84 24.94-27.4 25.55-1.66 1.87-5.7 10.09-12.09 4.92.45-2.7 1.47-19.16 17.55-6.77 12.34 8.54-9.2 3.62-1 .63 10.53.12 5.79 7.15 3.35 7.48-13.18 1.77 3.67 13 16.94 7.5 2.34-23.09-32.94 19.07 8.69-1.4-18.56-6.23-3.85 24-23.72 9.67 2.62 4.39 4.3 6.35-21.18 11.27 4.65 1.61 1.59 16.49 5.38 8.89-2.9-24.37-15.5 2.13-5.69 20.37-22.52 13.81-14.18 20.21-1 30.93 9.55 6.07.87 12.18-.5 5.26 4.76-2.26 3.49-20.08-1.89-10.28 10.82-.65-.07 8.92-11.58 2.47 3.65-3.65.09-3 12.43-7.28 10.71 1.13-1.35-13.55-4-8.91-.25 8.54 4.14 2.54 7.7-14.3-.64-9.27.25 4.66 5.71 5.31 9-2.49 2.3-12 8.34-8.35 10.83 14.53-12.39 8.91-.65 16.17-3.28-4.67-7.71-.18-16.42 6.09 3.55-.51-13.88 7.2-14.17 9.23 3.69-44.18-7.82-35.29 14.93-41.63-16.73-.75 11.7-6 5.58-18.62-7.08-6-.66.79 8.51.5 11.52-10 2.67-14.75 20.39 1.87 3-6.39 16.66 14 .73 15.81 12.17 2.29 8.41-37-6.25-29.91 3.84 6.4 1 14 3.39 1.48 8.7-4-1.93-19.36 10.9-.11 5.73.52 3.87-5.77 5.89-2 13.78 7.61 11.07-.38-23.34 9.08-7.24.55-.33.42-1 1-4.15-1.3-10.08-4.47-16.64 7.18-3.94-2.07-17.14-6.75-11.2 18.49-10.42-2.37 6.17-20.3 11.57-23.46 20.18 11.06-.26 6.17.21-.65 12 .79 14.32 7.71-15.44 7.61 6.4-1 4.91 7.92 15.28 7.3 4.29-3.25-5.86-9.22-16.82 2.51-5.36.8-11.64-17.1-18.68 3.88-9.84-23.82-10.38 32.33-58.83 5.12-13.28 19.36-17.78-1.42 7.24 5.26 14.26 6.71-19.29 1.55 3.68 11.41 6.4 1.81-8.94-12.11-18.54 3.29-10.38-2-7.22-21-21.29 1.06-11.61-30.49-36.7 18.21-7.24 50.71-9.58 14.1 5.74-30.23 2.59-16.9 7.75 15.15 5.78-14.35 4.44-17.12 8.86-5.36 6.06 10 .77 10.1 2.69-11.22 6.75-5.18 27.19-.8 8.38 3.22-20 1.7 12.62 7.65-.83 5-30.73 1.68 2.9 7.73-2.46 5-5.56-12.48-26.48 42.55-14.92 32.55 14.69 50.53 26.57 5.2 27.66-5.19-1.62 4.92-5.13-4.12-13.43-6.21 19.66 1.18 6.22-14.71 3.19 6.1 14.31 10.24 2 8.33 18.15 8.58-6.49 24.21-8.5-2.63 8.05-2 11.91-3.88 14.9 9 15.16-6.92 7.1 8.42 27.3 2.33-.07-.48-6.82 8.9 10.47 9.08 2.15-4.57-3.75-13.19-18-4.62-14 15.92 8.71-5.19-3.45 4.07-14 24.59-7.57 17.17-8.49 5.86 11.06 1.22 1.69 12-12.67 7.77.34-1.27-2.23-14.13 14.94-3.88 8.07 10.16-7.83-3.82 8.59 10.71 13.41 5.19-.27-9.85-17.94-2.11-13.37 16.56 9.26-4.72-5.4-.53-13.1 14.15 15.09 8.31 6.25 1-8.33 14.46-20.94 84.53 107.81 47.64 75.36-1.2 4.46 14.52 16.6 6.23 16-14.55-10-11-28.72-18.64-33.49-1.47 26.7-8.84-10.11-15.75-4.08 13 14.48-19-5.75-10.11 7.18 25.39.5-7 5 9 8.17 28-8.51-3.31 9.14 6.84 8 13.32 12-12.9-5.36-14.91-1.87-.17 5.92 12.93 7 2.69 9-5-3.09-14.26 7.89-7.75 7.32 9-3.52 10.43-9.45 9.89 2.59 4.65-.44 3.87-8.33 11.11-10.53 11.58.85-5.86 5.38-2.46 8.27 11.62-6.54 29.81-2.45 30.61 12.38-25.23-24.33 1.77 10.23-18.77-6.06-12.27-3.61-3.19 1.29-3.34 5.9-9.55-2.33-18 14.85-3.33 4 6.41-3.75-2 12.27 12.24-2.61-1.5 9.41 2 4.81 9.69.24 7.6 4.72 24.23 20.45 2.71 19.23-2.7 2.31 1.7 1.81 7.12 2.85-3 11.4-7.89-2.55-14 7.13 16.8-4.29-9.73 20.58 5.92 12 1.38-15.29.38-4.64 7.89-.44-2.66-3.67-3.36-27.15 2.71-6.94 5.38-43.43 34 21.27 14.06 42.68 1.45 13.24-22.33-24.93-18.34-9.29 7.22 4.67-13.62 2.69-10 14.06 5.07-.36 6.61-10.9 12.56-8.78-5.5 22.46 4.24-8.2 9 3.7 14.43 22.26-12.87 3.24-9.16 13.68 19.84-1 5.63 1.24 6.83 12.05 6-3.54 9.51-11 11.52 5-6.65 35.76-33.86 376.18-41 405.26-2.27.17 30.68 1.17 44.64.67 38.4-1 43.71-291.17 47.86-340.28-4.9-168-8.8-141.34 3.19-151 20.42-.1-4.67 23.16 8.38 18 3.44-9.58 12.38-7.59.88 8.19-.33 1.13 0 1.33.61 2.26 14.81-15.42.49 7.13 6.93 13.76 14-14.19-13.38-23 11.31-15.83-2.8-8.41-24.91-17.75-5.51-18.34 6.7-5.11-27.46-3.81-13.43-12.89 20.62 7 22.81-3.59 25.28 17.8 3.2-9 5.54-8.79 6.42 6.15 5.35 2.69.5-14.7 10.89 3.94 11.74 1.69-10-11.19-4.84-13 4.45.8 8.88 1.73 4.48-1.82-20.76-3.06-3.11-1-2.92-7.7-1.63-.89-30.35-1-3.73-8.2.68 2.56 12.25 10.94 9.28 4-.65-3-11.54-7.43-2.75-9 2.11-2 9 9.23 10.41 6.95-13.69-17.82 18.75.89 6-11.71-21.11 1.54-2.65.29-7-9.47-32.24 40.06-.95-27.21 21.18-9.73 4.28 2.53-14.06 15-5.4 14 8.86-10.63 12.55-10.83 2.3 10.85 3.38-2.26 9.32-9.56 7.78-1.46-9.14 9.82 2.46 23.62 3-4.12 1.2 3.88 17.4 7 4.34-2.24-7 .1-11-16.34.13-6.51 2.49-7.07-14.82-9.37-10.71-14.55 8.89-7.32 27.49 15.94 24.09 5.93-8.41-4-1.23-12.65 9.12 4.68.65-3.69-3.83-11 2.5-7.27 8.23 9.11 14.45 5.77 4-1.58-3.18-1.49-12-.89-4.52-4.52 11.14-16-7.34 5.31-15 .69 8.47-12.24 1.33-3.68-7.88-17 50.22-6.93-14.7-3.21 28.92-13.47-8.66-8.22-13.35 5-19 2.86 4.72-10.56-6.1-19.53-3.39 5.19-10.52 12.79-4.27-26.69-11.17 2-6.68 8.56-27.86 8.71-5.3-5.87-2.67-3.49-14.71 10.37-8.36-7.57-.72-22.41 58-38.93 45.91-10.48.88 9 4.4-7.57 8-3.95 4.47 3.59-2.07 9-.68 13.94 8.48-19 6.78 16.1 13.87 4.1 1.57-6.42-8.76-9.23-6-12.65 5 1.74 15.21.18 2.19-2.56-8.36-1.49-13.36-6.94 1.08-5.61.95-2.36-39.43-12.59-10.19-10.8 20.28 16.26-12.39-17.88 19.61 3.81 7.36 1.23-9.12-7.44-2.49-9.23 1.19-1.5 15.51 6 11.89.82-6.09-9.73-5-2.18-14.89-4.81 6.29-7.1.89-15.11-6 3-9.4 4.41.15-4.39-2.33-8.63-6.1 8.36-20.37 17.15-36.2 16.92-15.72 4.74-1.49-27.29-5.08-30-9.5 6.65-18.93 6.38-4.79-10.22 7.16-16.49 22.78 10.1 22.27-2 .7-3.81-16-4.09-7.13-7.62 5.39-5.5 13.54 15.1 15.21 7.07-4.8-11.14-10.25-7.42 7.32-4.57-.4-14.33-14.17 7.39-11-20.25.37-10.17-11.43-3.6-10.53-9.59 10.41-1.69 5.45-11.33-10.47 2.31-5.79.93 6.23-6.77-1-7.87-9.11 2.7-1.66 16.7-15 7.56 3.51 2.38-13.24 22.34-14.77 11.92 20.14-26.17-8 .65 9.59-21-22 12.23-1.89-38.08 10-16.72 11.76 16.25-2.51-9.75 9.8-1.79 1.89 1.66-1 17.24 4.14 10 4.15-19.54-.44-3.17 9.86.62-16.16-28.88 10.11-21.42 13.58-3.6 3.75 6.59-.85-11.13 5.85-3.81-4.36 25.26 4.92-7 5 19.29 6.74 7.67 1.19-11.48 1.68-14.64 4.17 1.38 12.34 9.6 8.31.73 1.23-2.42-29.57-9.71-9.4-12 7-7-30.12-.84-17.94-8.8 8.29-12.2 39.76 8.78 20.95-6.15-6.34-10.3 15 6.22 14.2 1.83-.86-2.93-7.53-8.52 2.07-6.6 3 6.66 30-9-5.27-3.46-2-1.76 8.73-6.62 1.14-7.3-14.15 1.45-9.89 24-20.4 2.6-.34 9.45-11.77 22.06-27.84 13.32-14.61-7.84 9.78-1.21 7.48-6.16-18-6.15 6-2.06 3.83-17-25.55 23-3.81 6.11-19.17 2.69 7.36 30.69-3.55 1.74-5.61 11.07.69 10.49 14.76 11.06-13.36 20.86-5.66 2.06-21.14 25.23-16.64 4.61 4.06-9.82 4.27-30.73 17-31.27-.79-1.67-8-1.89-5.65-6.1 4.57-.55 16.24 6.67 7.23-5.81 11.25 6.05 14.89-12.65.76-2.68-5.44 4.57-1.88-11.66-7.74-4.54-.88 6.39 2.28 17.89-8.41 5.26-5.45-.23 9.51 19.71-2.19 31-7.38-1.54 3.62-4.32-4-12.42 1 3.91-.62 7.27-4.21-.42.83-7.73-.31-15.74-5-3.17-5.22-11.43-18.07-6.24-3.85-.53 7.05 4.62 1 1.23-2 7.22-1.68 4.44 12.71-6.27 11.07 4.13-18.42 1.74 10.73 1.08 4.81 15.19-3.26 2.93-7.47-11.38-10-6.61 9.63 15.83-11.35-4.79-.63 18.9 2 1.3 8.2-20.3 9.5-5 2.9 6.88-42.83 33.39-15.74-6.87-.74-1.85-16.74 9.25-5.12-3.06 14.27-8-3.88-2.95-1.28-6.89 6.62-1.19 6.41-17.06.15-6.58-4.12 19.83-15.31-6.5-9.68 11.48 15.66 22.43-9.82-9.56 2.7 18.62-10.28 12.57-11.46-15.41-10.82 4.08 3.76 16.13-15.26-13.52-.33 14.8-29.91 17.25 10.41-55.83 3.46-93.68-.48-21.05 38.89-2.58 13.2-16.32 3.66-7.55 11.86-4.11 9-17.21-5.6 1.14-5.64 13.06-11.16 15.54 0-.39.8-10.46-1.47-6.7-.73 8.24-12.38 25.47-7.58 5.86 20.1-44.47 53.14-40.24 37.47-9.54 16.47-9.13 2.15 2.13-3.1 9.34 14.58-4.45 6.08-5.53 8.71 10.26.42 4.72 8.48.31 5.06-6.2-9.37-18.48 9.4 5.51 5.86-4.84-18.64-20.87 9.1-.14 3.06-10.73-23.11-7.64-10.5-31.14-3.31-7.57 6.6-17.7 1-4.23 8.4 4.43 2.65-23.31 1.86-.42 15 1.21.59-7.4-6.32-9.23-11-14.3 14.4-6.09 12.5-6.74-6.62-1.91 15.59-22.47.64 3.52-16.22-2.58-26 .66 47.54-40.2 49.74-5.44 11 6.71-5.53-9.48-.71-11.85 2.3-.92 16.07 17.21 4.62 22.63-5.49 14.24 12-11.81.91 16.27 3.66-1.43 5-8.15 6.2 5.12 10 8.1 4.77-3.5 1.18-10.18 20.39 10.21-1.28-2.26-.06-10.47 20.89 11-5.3-3.79-3.92-16.39 13.78-5.1 15.27 31 17 6.15.92-.46 2.52-.94 4.71 2.72-.9 4.5 3.58 17.24 4.64.73 18.3 38.06.09-11.1 15.35 11.7 20.19 15 19.25.46-2.71-8.2 7.14-1.11 9.9-9.11-5.59-5.62-14.8-3.09 4.17-1.78 3.82-10.76-5.22-2.41-10.07 11.25-18.46 4.6 7.08-3.86 15-16.4-6-1.18-10.22-3.55-27-10-31.13-16.55 2-1 9-14.2 10.43-4.63 10 19.21-2.4-15.72 6.74-4.33 6.47 11.69 1.25.1 5.13-3.26 3.54-.32 1.25 3.73 3.35 9.7 14.91 5.29-14-14 17.61-1 6.18-5.3-19.11-7.08-10.75-10.72 11.45-6.86 1.72-7.11-10.62 0-6.31 0 12.12-17.56-3.49-7.43-14.6 27.91-5.73-20.24-14.56 3.87 8.71 8.13-31.55 45-35.87 8.79-8.21-2.43 8.67 14.73-10.94 3.72-6.79 4.71 8.22-2.42-.25 13.76 3.48 1.39 11.23-13.81 15.8-.79-6.14 5.17-43.32 26.08-30.08 6.62 13.18-35.32 19.24-24.43 36.46-27.55-13.53-16.23 7.35-1 8.18-5-14.36-13.43 15.15 3.11 7.07-9.92-14.31-.62-11.79 8.09-10.44-12.19-25.62-.56-11.32-2.72-.18-16.18.55-6.91-13.46 9.69-10.24-1 4.76-4.19-.6-19.72-4.07-8.62-4.86 2.11 6 20.45-2.76 12.45-19.12-8.09 7.8 4.29.35 13.27-17.94-24.75 9.14 8.22-15 24.41-3.42-3.38 5.09-32.73-.81-20.55-8.64 10.43 0-11.43-10.5-16.49-6.86-4.66 4.83 11.36-3.06 8-3.1-7.69-23.85-3.75-9.85 1.3 10.14 1.3 9.7-3.33 4 8.26 5.38-6 28.52 5.69 3.46 2.51-5.56 4 5.29 1.95 11.56 5.35 1.29-2.09 5.83 26.83-3.25 25.58 5.28-25-7.15 6.08-4.87-10.82 0-21.07-3.09 5.61-11.72-5.93-11.55-1.4-9.06-2.58-2.39 11.43 15.7 3 13.66-.67-.27 7.33 7.16 7.31 29.74-20.21 8.48 30.05-8 11.37 1.51-22.46-5.41-5.71 2.5 5.14-17.73-11.52-3.69 3.44 2.6 2.46-12.91 3.45-8.47 7 23.7-7.36 5.42 7.64 0 17.57-9-8.13-17.33.92-4.24-12.64-7.12-1.44-8.46 6.1-15.87 4.43-9.36.18-3.22-3.78 7.71-16.38-1.05 4 17.59-.33 9.45-3.05-21.09-2.58 4.76-6.43 8.13-14.48-21.87 8.64 5.4-27-10.66-13.06-2.53 26.16-.38-1.72-11.29 6-2 .11 12.49 8.58 4.65 17.34-16.41-21.84-15.09 19.43-21 3-15.52-8.26 16.7 1.7-19.08 42-25.31 20.7 16.42-53.37 6.64-42.46-11 8.17 5.3-19.1-4.1-10.17-1.9 14.73-14.22-16-10.71-.25 14.53 9-13 3.84 3 8.75 16.39 6-8.42 2.45 2.21 7.67 15.84 20.19-24.64-4.17-9-26.6 1.66-11.65 17.64 17.79 7.1-6.07 1.37-7.07 12.72 17.1 11.7 4.84-2.23-8.24 1.77 3.2 11.3-3.63 0-4.88-10.11-2.89-15.73-4.93 1.75-2.26 5.44-18.25-3.34-4.37-6.93 15.85-4.86-10.27-10.28-1 1.29 5.47-1.45 20.87-4.79 11.89-1.66-33.16 51.66-55.74 41.08-26.46-.37-1.91 13.08-12.5 5.61-.29-2.07-2-3.84 20.48 4.83 2.63 1.23.45-.09 6.46 9 9.5 5.21-3.55-13.48-12.86-3.89-11.84.63-.88 9.45 4.32 4.13-1.82-22.5-11.89-1.5-2.56-.35-11.26-4-.82-28.76.78-22.19-5.43 28-3.21-10.64-3.65 9.79-9.52 4.71.64 11.11-2.21 7.15-4.47-15.83 3.34 11.24-18.88-3.13-14.16-10.43 29.46-8-4.1-12.76 10.71 1 10.25 2 14.58-6.19 3 1.92 21.12-1 11.84-26 30.18-3-.09 14-19.87 4.16-13.07-1.54 2.33-3.76 4.61-4.86.64 14.64-25.19-13.53 4.66 4.31-19.56 2.43-12.06-4 2.2-8.91-.36 0-5.66-4.81-16.59-9-11.15 3 12.64 12.79 8.91.34 11.87 2.34 4.12 10.75 6.61 8.62 11.41-3-2.57-10.74-5.16-5.66.36 7.26 4.38 11.08 7.77 0 5 6.28 13.14 11.87 4.95.4 37.88-8.54-.67-6.25-16.88-8.88-27.83-9.37 9.11-3.34.55-4.51-11.58-10.37 20.93-1.42-4.43-19.23 1.57 1.72 7.19 23.57 7.41 4.06 9.74 6.43 3.39 26.92 10.14 7 10.41 6.47.79 20 14.37 7 7.18-40.63-31 3 3.47-24.37-4.7-2.25-5.93-18.48-1.76-3.84 2.94-2.65.22-17.81 14.1-3.49 6.6 3.93-2.92 3.15-1.57 3 4.06 7.75-7.63 17.25-19 10.84-2.94 20.26-20 41.53 27.15 26.58 17.56-15.75-29.78-2.86 1.74-11.21-3.59-7.13-1.61-1.08-11-13.4-11-7.9-.15 13 9.48 3.22 9.66-12.71-4.94-17.2 16.65-7.13 6.06 12.92-12.78-.41 5.18 6.26 2.43 25.19-12.23 1.48 1 9.37 4.75 10.6-17.49 34.92 20.65 26.19 38.92.45 3-17-22.92-8.38-1.25-4.28 8.49-11.67 5.94 8.56 10.78-8.35 24-.16 33.26-11.64 24.49-32.35-12.85-12.2-1.73-13.79-21.11-16.74 18.23 2.51-7.39-12.63-10.08 12.4 32.78-23.07-.7 6.43 27.27.79 6.49-26.67-5.57-11.59-19.62-.83-19.61-4.92 10.2-10.85-2.25 5.64-36-2.65 10.6-12.46-9.58 13.09-13.2 7.4-13.55 22.17-9.63-2.35-2.79-5.86-14.33 1.88-4.88 1 7.11 10.24 13 3.26-1.22 1-4.63 14.44 17.06 16.06 6.14-27.22-13 13-21-24.82-10.51 2.78-29.17-2 6.37-9.6 6.27-8.23-16.54 8.12-22.29-.41-29.38-12.94 21.44 5.25-21.82-8-8.48 2.62 15.17-14.4-10.11-17.17-.75 1 2.32 7.5 4.61 6.78 7.2-11.67 7.72 13.43.6 11.46 10.16-8.09-1.61-20.2 1.4-24.93 5.24-4.11-5.24 6.44-12.42.44-17.37-12.49 17.87.92 3.95-13.27-4.71-5-2.35-.41 9.94 4.62 13.22.38 2.23-9.44-1.93-6.53 1.92.55 2.53 2.95-1.23 11.64 6.53-9.19 10.83-21.1-20.36-27.24-31.91 1.34-12.16 27.14-33.61 20.42-10 13.73-7.29.17-1.17.13 8.68 6.27-12.05 6 25.37 9.94 0-3.43-10.06 4.17 2.72 8.56-2.52-10.88-12.71-16-8.25 3.58-13-1-4.49-15.3-.65-22-8.32 4-4 46.33-22.43 32.14-23.29-16 4.85 6.68-4.43 8-15.28-1.14-3.83-4 1.62-9.85 4.67 2.92-5.64 1.19-19.79-4.81-15.86zm-14.16 23.26c22 10.93-17.64 30.78-23.17 27.46 1.6-28.55 6-8.43 17.81-17.82-18.64-9.81 5.08 1 4.52-5.35-3.34-3.51-6.42-6.78.88-4.29zm-116.45 25.22c5.19 2.37 2 15.81-5.32 8.51-.45.86-2.96-9.26 5.32-8.51zm-14.76 2.07c10.11 2.62-16.09 4.71-6.88 8.8 2.71.25 18.22-6.84 14.36 4.52-2.46-4-22.45 1.81-8.69 3.55 7.16-3.88 22.6 13 11.44 9.63-7-9.42-47.66 6.12-28.68-22.18-17.08 4.65-10.1-5.25 18.45-4.32zm344.16 1.18c7.51 3.07 1.44 20.92-3.39 3.4-4.53 6.29-.84 12.86-10.18 16-10.98 5.71 1.48-23.44 13.57-19.4zm-313 9.44c3.92 1.12 6.67 9.8-.12 3.92-4.82-4.12-9.05-9.55.09-3.92zm-7 2.7c7.71 4.42 16.14 27.74 9.15 26.32-13.03-7.24-32.34-33.3-9.16-26.32zm55.66 9.69c30.42 7.59 47.83 85.11 39 67.63-2.93-5.44-3.61-11.8-11.34-7.06 1.77-15.54-14.67-16.12-2.27 2.42 4.19 1.82-14.21 12.79-3.16 13 1.18 8.59 21.19-12 29.76 20.45-10.88-3.85-26.71 2.48-12.47 4.33.61 2.19-9.71 4.05-6.93 13 8.74 10.33 1.41-10.35 9.89-9.29-1.27 2.47-2.09 7.5 3.19 9.39 1.83-35.9 20.88 6.39 7.48 14.4-46.37-.82-42.78-4.36-53.4-48.28-18.94-44.68 4.41-.41-.7-29.35 1.69 7.55 28.37 7.73 9.89-1.19-7.32 2.89 8.64-18.74-6-5.65-8.83 11.09-6.61-4.69-14.3-3.3-1.09 3.53 6.3 32.86-3.72 17-26.32-34.16 5.51-18.06 0-27.33-22.5-1.63 6.33-.86 1.94-8.56-15.31.27 4.2-4.76-5.12-11.27.63 1.87-9.63-4.72-2.59-8.6 22.81 16.57-9.04-10.73 20.84-1.74zm223.34 2.07c-.29-.89-1-1.58 0 0-.56 1.24-5.08-3.31-.01 0zm-248.67 9.69c4.58.59 3.2 17.46 0 8.26-1.88-.34-9.12-15.78 0-8.26zm-6.49 8.66c10.69 9.1 2.68 12.09-7.19 4.49-.96-4.15 2.1-11.1 7.19-4.5zm216.06 10.22c11.2 10.79-13.14 19.17-2.8-.73.27-.52.61-.82 2.8.72zm-115.75.5c15.69 3.32 15.79 28.63-8.61 38.45 8.6-2.43 2.37 20.64-3 16.87-25.21-33.72 25.14-23.51 9.93-31-12.71-1.83 3.8-6.89 8.41-10.42-1.16-3.27-8.34-.92-9.08-2.7 5.41-4.72-8.94-14.31 2.35-11.21zm-102.58 1.72c3.36-2.45 13.19 13.63 3.64 10.47-2.87.43-11.57-14.01-3.64-10.48zm94.27 1.18c11.19 14.76-14.52-1.29 1.64 14.1-.11.5 1.31 3.9-2.48 5.22 2.21-4.6-19.34-9.06.84-19.33zm-15.39 6.09c2.72-.49 4.78 13.23-.35 5.57-1.45-2.83-4.62-7.94.35-5.58zm140.09 3.79c.75 4.91-17.33 8.91-8 2.41.77 2 4.99-4.78 8-2.42zm-131 8.36c7.1 5.19-9.61 15.5-3.73-.74.32-.86.73-1.4 3.73.73zm129.72 6c2.29-1.42.84 19 5.51 14 5.18-1-2.21-15.48 6-8.57 8.35-2.31 5.42 73.55-4.06 52.91 3.65-9.84-4.39-6.8-3.5-18.62 16.35-31.73-9.21 18.63-7.08-28.34-11.56 2.36 7.91 14.61-21.25 4.85-5.27-.91 12.58-19 24.38-16.24zm-154.7 12.93c-1.22-1.33-2.06-.49 0 0 2 1.12-3.5 3.73 0-.01zm49.13-.24c3.52 2.13-11.82 6.12-5.24 7.83 3.89 3.13 13.79-9.75 13.65.65-7.26 3.51-14.42 16 3.38 6 .29 8.81 17.68 10.32 5.67 18.32-2.49-5.77-24.72 3.53-10.2 3.92 9.39-2.16 7.84 1.65.16 8.62-3-2.94-8.4-4.62-13.17 1.53-.52.79-.81 1.68 1.86 2.07 14.49.15 7.09 2.23-6 13.56-4.34-10.87-10.77-70.11 9.89-62.51zm83 7.27c35.18 10.3-19.81 4 20.6 12.43.27 2.07 3.08 6-2.5 2.77-17-.95 8.57 1.78 5.65 17.84 1.81 10.88-20.55-25.48-11.9-4.12 7 3.69-22.11-1.23-11.73 5.54 21.16-1.69 6.45-.55 8.33 6.88 4.68-5.34 24.49-5.83 4.44.8-12.27 14.73 42.37-21.3 13.76 36.79-5.65-16-8.75-24.37-7.48-5.66-2.81-3.5-14.59-7.79-14-1.36 13.28 15.36 13.17-.17 19.93 10.65-1.84 15-6.78-1.56-6 12.54-4.72 3.7-5.47-12-16.61-4 21.7 3.15 10.47 15.11-4.13.09-13.47-9.71 25.93-3.37 6.9-13-21.05 11.32-6.16 5.07-13-6-4.54 2.33 1.66 12.81-9.73 15-2.61-18.17 0-39.09 18.6-25.89-5.66-18.49 4.28 6.09 10.66.45-19.1-17.06 7.53-23.34-19.08-12.48-12.4-18.18 4.69 3.14-7.44 6.91-6.49-13.35-12.28-56.76 14.68-56.19zm-40.52 21.74c27.22 7.7 20 69.8 1.16 41.5 1.18 6.23-8 20.17-9.42 14.63 4.19-4.27 1.91-15.93 4.3-18.61 8-.67 15.38-13.72-.49-5-1.83-.36-1.09-3.07-.27-6.82 4.72 1 21.41-11.37 3.59-6.69 3.08-1.5 5.36-15.88 1.07-14.41-11.06 14.77 3.56 12.58-11.64 14.06 11.41 24.6-2 3.84-7.28 14.53-.65 2.37 21.41 1.08 7.48 22.72-5.85 8.12-1.26-23.25-7.77-12.91.53 10.48 1 2.06-8 1.43-11.91 3.8 5.76 1.12 1.59 12.15 7.36-4.3 17.61 2.54 5 13.2-1.83 3.78-16.32-23.76-26.19-34.18 18.59-25.76 12.62.57 19-6.43-2.76-17.53-2.17-24.84 7.18-11.2 6.47-11.12-11.92-20.96 20.64-17.98zm-215.47 11.78c5.16 10.75-10.61 1.9-4.38-3 1.55-.52 3.15-.67 4.38 3zm9.19.1c4 .64 1.91 10.75-1.18 4.53-.65-2.07-7.6-11.82 1.18-4.57zm-19 2.46c2.74 2.58 5.84 8.68-2.21 6.73-.55.71-.61-7.73 2.23-6.77zm97 15.29c3.78 2 35.89 1.4 21.7 11.1-2 7.18-34.86 6.67-18.44 11.28 23.44-1.84-4.51 12.62.23 19.47 8.95-2.84 8.15-15.36 13.67 6.24 2.72 15.34 7.22-3.41 2.72-9.4 8.4-1.54 1.93-.76 8.7-13.69-19.46-14.43 2.31-18.65 28.6-14.28 26.12 6 20.6 14.36 4.51 20.55 25.44 5.45 18.47 3.62 7.64 22.21-11.51-7.23 1.81-2.92-3.28-17.83-3.73-.94-1.91 11.69-5.23 8.38-.35-8.48-17.59-14.42-10.64-5.61 19.31 14 2.64 2.07-.11 10.58 41.31 10.37.61 6.82 11.94 12.36 25.9-3.65 16.48 45.74 4.07 18.26 4.06-4.27-2.38-16.57-5.56-13-.74 3.88 7.43 13.37-3.08 6.62-9.83-31.19 16.21 16.35-58.22-15-33.5-4.19 10.79-21.31-12.74-23.12-.4-3 6.89-2 4.74-14.82-16.4-.44 9.95 30.85-27.42-3.09.39-3.68 2.13-6.21 6.06-.67 16.96 13.71-20.81-24.39 30.13-16.58zm291.4 19.82c3.24 5.8-12.29 6.48-5.31-.64.51-1.23 4.23-3.97 5.3.6zm-152 4c6.76 1.14 8.13 24.12 4 28.67-4.72-1.68-9.37-20-18.54-14.16-1.31 4.27 22.24 7.84-2.39 8.37-3.16 2.89-3.66 12.58 1.66 7.24 20.87-13.54.29 1.57 4.74 7.4 6.92-3.24 15.19-17.17 10.76 3.35-12.65 42.32-19.44-.74-28.55-18.18 12.34-17.67 8-22.53 27.84-14.48.76-.65-10.4-12.78.48-8.22zm-120 2.75c6 4.22-10.08 7.06-4.53-1.72.74-.85 1.65-1.42 4.55 1.71zm65 .69c5.77 3.44 2.61 19.7-5 6.58-6.25-4.97-.2-13.48 5.02-6.59zm-115.8.05c30.14 20.49-15.38 17.11 2 22.24 37.57-5-25.4 35.84-1.98-22.25zm-5 1.87c-1.68 1.25-1.86 14.88-4.32 13.13 1.76-1.89-15.52-12.16 4.32-13.16zm-126-.64c2.36 6.12-5.75 17.46-13.79 11.48-.93-2.11 7.19-12.23 13.76-11.49zm324.45 11.55c1 1.72 12.12 6.53 2.5 14.51-13.21-24 6.19 14.63-10.93 2.59-3.77 4 12.32 12.62-5.79 16.93-5.51 5.52 4.35-51.77 14.19-34.04zm92 .84c16.48 17.32-12.2 4-.48 12.21 4.34-.36 8.28 2.61 4.1 5.78-10 .23-13.54-10.12-15 2.55-5-7.82-28.62-3.43.44 3 1.22 1.28-15.17.83-3.85 3.83 19.15-3.64-7.72 6 6 5.72 16.39-15.69-10 27.47-16.43 9 13.62-3.47-11.47-7.87 6.17-8.08 10.53-8.13-6.48 2.87-8.44-8.94-3.06 1.28 1.13 20.1-8.61 6-.75-.92 3.08-13.86-.74-11.13-2.34 6.52-4.58 9.68-8.39 2.35 7.35-7.02 34.87-24.89 45.15-22.3zm-344.11-.29c6.48 2.16-6.44 11.77-5.57 2.94.81-3.43.66-3.22 5.49-2.95zm75.23 1.27c3.53.86-4.32 8.92-3.19.45.34-.59.56-1.16 3.11-.46zm108.67-.29c5.7 6.85 19.63 25.25 3.24 29.22 1.79-8.27-5-16.69-6-2 6.47 5.52-2 9.44-7.31 10.58-.79-2.62 3.32-38.63 9.99-37.81zm122.1 3.29c6.93 4-6.56 6.35-3.69-1.27.39-.1.77-.2 3.61 1.26zm-134.34 1.09c9.19.47-1.39 24.34-3.78 19.51-4.58-1.28-2.06-25.49 3.7-19.52zm96.38 3.49c38.57 7-27.8 21.29-10.38 10.32 26.54-.6-11.43-4.05 10.3-10.33zm19.72 6.78c2.84.94-2.64 5.54-3.59-.49.29-.53.73-.91 3.51.48zm97.51 1.63c.51-.49 5.77 11.77 6.41 7.86-8-16.4 16.89-6.25 1.63 10.52-4.63 3.18-13.3 4-5.24-1.22 5.49-19.59-11 14.74-14.93 11.17-3.58-8.79 14-18-1-12.65-4.57-2.42 8.76-8.33 3.33-9.53-8.18 4-6.41-10.84 7.52 1.3 10.62 4.99-10.79-12.12 2.2-7.46zm-40.92 5.4c4.69-.93 2.55 10.66-.53 9.72-2.29-4.52-10.44-11.72.45-9.73zm-55.07 1.92c-.1.53-5.36 8.35-5.68 3.17.56-3.08 2.22-5.24 5.6-3.18zm78.28-.59c-16.26 13.79 17.41 3.51-5.89 11.07 14.43 8 12.89 10.44-.8 16.79-.6-3-4.55-12.78-7.57-7.9-1.88 3.17 9.85 10.78 6.26 13.15-9-2.87-27.86 14.31-30.42-6.18 7.39-6.7 3.72 7.35 15 3.16 6.92-8.73-35.34.73 23.34-30.1zm-114.17 2.41c.49.35-3.52 3.49-2.56-.05.49-.62 1.06-1.24 2.48.04zm24.43.35c6.3 25.69-24.43 13.33-6.28 10.14 1.16-1.38 2.23-1.64-2.19-3.29-24.24 3.69-7.2-9.91 8.39-6.86zm20.41.09c6.92 3-8.42 3-4.88 7.23 17.5-8.19 23.82 18.32 11.9 3-.51 6.66 7.79 16-3.19 20.88-5.58 1.27 1.48-21.26-4.47-12.74-5 7.11-.85-2-9-5.45-3.83 3.5 10.23 12.23 3.54 12.68-16.68 7.88 14.7-3.59 5.55 9.44-27.09 27.63-18.3-40.26.47-35.05zm-96.53 5.9c24.21 32.29 3.68 77.82-10.35 51.09-40.87-32.2-15.57-55.48-9.17-30.53 11.63-6.19-15.55-21.65 14.26-11.9-5.23-6.01-9.93-11.49 5.18-8.67zm-53.5 3.15c4.68 3.73-6.86 4.58-7.52-.49.27-.22 2.38-2.14 7.44.48zm107.69-.64c3.25-4.29 2 30.06 7 6.72.6-.32 1.17-.12 3.16 2.58-.13 2.88.43 31.06 3.7 6.24.79-.68 1.28-1.07 2.16 1.62-1.8 19.4-1.89 45.65-15.85 38.48.76 25.6-38.55-25.2-29.74-38.27 15.43-21 5 5 9.53 8.3 11.65-14.64 2.82 1.08 7.53 8.66 4.27-14.73 2.38 18.28 8.31 2-8.5-14.05 1.92-2.62 3.35-8.33-8-4.51-18-10.87-3-9.81 4.67-4.17-40.53-10.84 3.77-18.2zm-99.23 8.8c9.64 11.88-.48 8.19-5.36-2 .75-.54 1.51-1.02 5.28 1.99zm118.36 3.15c-2.19-.66-1.4-.4 0 0 4.36 6.2-6.93 1.05-.08-.01zm42.39 1.67c5.56.69-2.49 8.31-7 5-.78-4.18 1.03-6.67 6.97-5.01zm7.32 7.58c4.57 8.72 23.64 35.5 2.58 31.65 10.18 7.55-9.54 5.85-2.77 17.32 13.34-19.08 6.11-14.68 19.55 16.49.12 11.33-7.65-13.8-11.68-8.57 6.53 16.83-8.33-4.65-11.56-1 4.51 10.45-2.42-.79-11.23 6.48.69 5.54 14.57-1.73 11.67 3.21-11.61 11.56 3.51-1 10.75-.33-.61.64-6.83 6.28-3 6.83 1.35 1.75 13.17-18.13 17.25 9.86-27.77 63.21-37.14 6.13-16.12 14.43 1.43-2.51-8.32-3.55-5.21-9.92 5.82 3.3 11.57 6.2 7-3.74 2.54-.05 11.81.5 8-4.44-2.38-2.72-10.74 4.67-13.77 1.26 2-4.89-5.77-7.76-3.89 2.13 3 12.89-17.05-6.76-9.06 5.85 24.36 19.86-26.06 72.89-17.61 11.17.51-9.22 17.85-35.46 8.56-32.3.11 6.83-9.76 9.49-17.36 0-5-14.12 11.84 4.43 12.63-.52-8.67-10.43-7.1-9.16 8.83-9.48.42-1.77-12.43-2.84-5-5.69 2.41.06 16.05 1.47 9.81-3.41-10.26-9.78-11.44 14.09-16.19-4.13-2.82 1-.12 9.18-4.57 13.28-3.09 1.83-.38-17.74-5.79 1-11.38 1.88.34-12.46 6.73-16.45-.38-2.93-15 3.47-3.14-5.78 22.65 9.63-9.79-9.66 18.28 2.09 2.71-8.59-14.94-3.42-12-9.78 1.85-1.24 2.81-13-3.37-4.67-1.49 1.07-10.14 26.81-11.88 10.41-1.73-4.22-9 16.65-8.4 1.93-6-18 53.75-42.66 27.88-13.78 4.33 5.82 14.58-20.14 8.65 8.32 10.56-12.52 2.18 23 9.75 6.06-.33-5.52-5.71-15 4.4-4.51 7 .38-5.2-9.55-9.28-10.52-6-14.5 9.92 4.8 5.67-5.41-1.82-4.28-27.02-12.98 4.81-15.35zm32 5.75c26.72 5.52 2.5 6.33 5.37 12.4 23.27-7.44 11.4 16.32-1.34 26.89-7.22-3.85-3.75-16.82-8.46-23.61-5.13 31.74-26.58-26.78 4.37-15.69zm-133 18c27.58 75-36.83 56.56-4.06-5.26 1.01-.75 1.93.87 4.03 5.25zm-102.23-.1c-.36 12.71-25 4.47-.64-2.71.42.02.76.12.61 2.7zm226.74 9.93c-3 30.51 15.11-27 6.51 44.3-.88 3.23-19.22-52.82-6.54-44.31zm-102.18 10c3.16 1.95 17.15-2.55 5.51 7.72-.16 1.46 1.24 10.32-4 5.82-1.01-2.42-10.28-17.06-1.54-13.57zm33.48.54c3.67 4.69-6.67 15.53-4.23 1.58.88-2.1 2.07-3.94 4.2-1.64zm-11.31 8.51c-10.69 18.52 1.18 5.56 6.46 3.2 7.93 8.81 6.84 12.78 15.83 21.59 7.62 2 1.55 32.78-4.73 19.59 3.81-4.16 2.81-13.87-3.39-4.35-13.45 5.45 4.82-10.54-.44-16.13-11 12.59-1.62 3.52-12.25-5.31-9.2 4.05 15.29 20.76-4.28 12.83-13 2.37 27.28 11 2.76 14.75.41.1-.57.71 4.57 3.1 9.67-.76 31.47 3.51 10.41 20.24-42.88 24.08-26.12-81.48-14.97-69.54zm28.82 23.26c5 0 4.51 12.68-1.77 2.16-1.5-1.69-2.33-3.48 1.74-2.19zm78.38 2.41c13.36 16 7.31 15.74-20.21 12.54 1.67-2.62 12.9-16.18 20.16-12.57zm-186.71 5.06c8.47 4.86 2.66 16-4.33 4.72.25.34-3.18-10.94 4.3-4.75zm27.29 8.41c6.44 2.75 12.87 48.73-.28 30.89-3.78-6.76-17.58-38.26-.42-19.49 2.81-3.97-12.83-18.86.67-11.43zm112.07 29.16c3.74 2.3-15.43 11.45-5.66 2.07 1.96-2.38 4.1-4.48 5.63-2.1zm-95.1 68.55c-.75.43 1.62 18.87-3.34 19.67-2.6-2.09-2.37-24.03 3.31-19.7z"/></svg>