<svg viewBox="0 0 1920 1280" xmlns="http://www.w3.org/2000/svg"><path d="m1050.92 37.31c-72.57-32.56-93.22 7.52-114 66.88-39.41 66-61.48 136.46-87.65 209-32.21 37.09-28.7 100.49-56.37 144.08-32.44 44.1-84.32 62.2-136.2 60.89-76.4 21.28-149.6-17.86-226.28-24.4-56.66-7.3-110 10.46-166.73 9.26-11.37-3.7-12.58 8.79-22.34 10.43-19.09-.94-35.54-13.32-56.52-10.44-63.05.75-184.75 14.34-184.75 14.34l-.08 762.65 1920-1.06-.08-761.59s-157.85 1-235.06-9.79c-21.73 6.37-13.09 11.16-26.79-7.75-25.6-31-41.49-68.94-61.15-105.29-32.28-41-26.75-80.55-27.48-127.13-7.86-63.11-9.23-113.34-36-162.36-11.73-29.18-15-62.48-37.24-84.65-18.32-25.88-36.47-28.27-49.66-.48-35.73 27.85-39.24 64-62.93 90.18-39.52 34.26-96.38 17.06-140.07-5.83-83.54-81.57-137.23-42.08-192.62-66.94z" fill="#000"/></svg>