<svg xmlns="http://www.w3.org/2000/svg" viewBox="0 0 1920 594.02"><defs><style>.cls-1{fill:#000;}</style></defs><title>layer4_2</title><g id="Layer_2" data-name="Layer 2"><g id="layer3"><path class="cls-1" d="M1838.85,55.13a7.6,7.6,0,0,1-1.65-3.6,17,17,0,0,0-2.39,1.94c-4.2-12.64-7.7,1.39-10.44-5.52-1.87,3.86-2.82,3.81-9.07,1.71,0,.16,0,.33,0,.49-10.28-4.69-10.82,1.55-18.71-4,1,6.92-2.79,5.84-.4,8.9-4.67-.59-3.64-5.41-4.87,1.42-3.22-4.14-12.33-4-10.5,3.15-2.47-3.29-1,2.36-6.38-2.34,0,2.52-.09,4.35-.13,6.47L1770.59,61c-.25.41-.23,10.36-2.39,3.58-1,0-.21,1.67-2.73.88l.08.33c-4.08-11.32-7.49,2-10.18-4.79-1.87,3.86-2.82,3.81-9.07,1.71,0,.16,0,.33,0,.49-10.28-4.69-10.82,1.55-18.71-4,1,6.92-2.79,5.84-.4,8.9-4.67-.59-3.64-5.41-4.87,1.42-3.22-4.14-12.33-4-10.5,3.15-2.17-3.1-1.34,2.11-6.38-2.34v.4c-.24-.71-2.81.12-1.51-3.23-.17-.49,2,2.32,1.91.41,9.16,3-12-11.5-12.75-2.2-1.51-.42-2.43-1.5-4.26-1.57-.16.35,1.7.37.7,1.42l4.09,2.13c1.24-.15-8.87.84-1.36.87-1.29.05-10.57,7.51-2.56,3.89,4.87-.9-6,9.08,1.23,2.23,1.19.64-3.73,7.34,2.3,2.57.46,0,0,1.45,1.88.59,2.51,6.7-6.61,10-9,1.5a17,17,0,0,0-2.15,2.2c-5.61-12.08-7.49,2.25-11-4.3-1.42,4-2.38,4.1-8.82,2.72,0,.17,0,.33.08.5-10.75-3.5-10.57,2.76-19-1.88,1.75,6.76-2.11,6.13.61,8.89-4.71-.06-4.23-5-4.67,2-3.67-3.76-12.71-2.59-10.08,4.31-2.83-3-.71,2.46-6.6-1.6.23,2.51.4,4.34.6,6.44l-4-2.33c-1.83,1.21,4.53,9-4.59,5,.26,3.62,5.54,10.89-1.11,5.46,0,.16,0,.33,0,.49-10.28-4.69-10.82,1.55-18.71-4,1,6.92-2.79,5.84-.4,8.9-4.67-.59-3.64-5.41-4.87,1.42-3.22-4.14-12.33-4-10.5,3.15-2.47-3.29-1,2.36-6.38-2.34,0,2.52-.09,4.35-.13,6.47l-3.74-2.78c-1.95,1,3.48,9.45-5.12,4.46,1.81,6.19-1.4,5.1,1.92,6.88-1.19,3-5.5-.22-1.16-16.06-.06.55-.1.91-.17,1.48l.84-.56c-1.06.15,2.69,4.47,3.37-.68,3.46,2.64-.71-2.73,2.08-.76,2.2.31,7.8,4.17.89-2.64,6.63,1-1.9-1.33-.91-4.9-.19-.48,2.05,2.24,1.92.33,9.27,2.64-12.43-11-12.82-1.68-1.53-.35-2.49-1.39-4.32-1.39-.15.35,1.71.3.75,1.39l4.17,2c1.23-.2-8.82,1.2-1.32.92-1.28.11-10.25,7.94-2.4,4,4.8-1.85-5.16,8.83,1.32,2.19,1.22.59-3.42,7.48,2.41,2.47.45,0,.11,1.45,1.9.51-.8-1,4.2,25.5-8.83,7.41a17,17,0,0,0-2.15,2.2c-5.61-12.08-7.49,2.25-11-4.3-1.42,4-2.38,4.1-8.82,2.72,0,.17,0,.33.08.5-10.75-3.5-10.57,2.76-19-1.88,1.75,6.76-2.11,6.13.61,8.89-4.71-.06-4.23-5-4.67,2-3.67-3.76-12.71-2.59-10.08,4.31-2.83-3-.71,2.46-6.6-1.6.23,2.51.4,4.34.6,6.44l-4-2.33c-1.83,1.21,4.53,9-4.59,5,1.63,3.85.81,4.91,1,5.55l-1.47-1.09c0,.16,0,.33,0,.49-10.28-4.69-10.82,1.55-18.71-4,1,6.92-2.8,5.84-.41,8.9-4.67-.59-3.64-5.41-4.86,1.42-3.22-4.14-12.33-4-10.5,3.15-2.48-3.29-1,2.36-6.38-2.34-.06,2.52-.1,4.35-.14,6.47l-3.74-2.78c.63,3.07-2.1,10.37-5.26,2.33l-.49.84c.75-1.43-2.33-.89-.14-7.72.06.55.09.92.15,1.49.33-.34.47-.48.7-.73-1,.37,3.57,3.81,3.15-1.37,3.94,1.85-1.27-2.52,1.87-1.18,2.22-.16,8.51,2.44.32-2.77,6.7-.39-2.14-.9-1.92-4.6-.29-.43,2.47,1.76,2-.08,10.46-.57-14.68-7.69-12.89,1.05-1.57,0-2.73-.83-4.52-.44-.07.37,1.73-.07,1,1.2l4.49,1c1.16-.45-8.37,3-1.1,1.18-2.66,7.74-14.45,3.92-15.4-1.88a16.66,16.66,0,0,0-2.15,2.19c-5.61-12.08-7.49,2.25-11-4.3-1.42,4.05-2.37,4.1-8.82,2.73,0,.16,0,.32.08.49-10.75-3.5-10.57,2.76-19-1.88,1.74,6.77-2.12,6.13.6,8.89-4.7-.06-4.23-4.95-4.67,2-1.33.57-5.66-6.07-7.11-1.74-4.45-6.65-6.29,4.43-9.46-1.48-1.42,4.05-2.37,4.1-8.81,2.72,0,.17,0,.33.07.5-10.74-3.5-10.57,2.76-19-1.88,1.74,6.76-2.12,6.13.6,8.89-4.7-.06-4.23-5-4.67,2-3.67-3.76-12.7-2.59-10.07,4.31-2.83-3-.71,2.46-6.61-1.6,1.09,6.88-13-3.05-11.19-4.65a17.46,17.46,0,0,0-2.15,2.19c-5.6-12.08-7.49,2.25-11-4.3-1.43,4.05-2.38,4.11-8.82,2.73,0,.16,0,.33.07.49-10.74-3.5-10.57,2.77-19-1.88,1.75,6.77-2.12,6.13.6,8.89-4.7-.05-4.23-5-4.66,2-3.67-3.75-12.71-2.59-10.08,4.32-2.83-3-.71,2.46-6.6-1.61.19.5,1.09,7.09-3.61,2.94-1.42,4.05-2.37,4.1-8.81,2.72,0,.17,0,.33.07.5-1.18-1.06-.84,1-3.91-1.57-8.59-.15-11.79-6.7-11.78-7.52a16.66,16.66,0,0,0-2.15,2.19c-5.61-12.08-7.49,2.25-11-4.3-1.42,4.05-2.37,4.1-8.82,2.73,0,.16,0,.32.08.49-10.75-3.5-10.57,2.76-19-1.88,1.65,6.4-1.71,6.18.22,8.47-1.84-9.43-15.27,2.36-8.51-8.18-8.59-.15-11.79-6.7-11.78-7.52a16.66,16.66,0,0,0-2.15,2.19c-5.61-12.08-7.49,2.25-11-4.3-1.42,4.05-2.37,4.1-8.82,2.73,0,.16,0,.32.08.49-10.75-3.5-10.57,2.76-19-1.88,1.74,6.77-2.12,6.13.6,8.89-4.7-.06-4.23-4.95-4.67,2-3.67-3.75-12.71-2.59-10.07,4.32-2.84-3-.72,2.45-6.61-1.61,1.09,6.88-13-3-11.19-4.65a16.26,16.26,0,0,0-2.15,2.2c-5.6-12.09-7.49,2.25-11-4.31,0,.3,0,.57-.07.83,0-9.18-13.67,5.76-6.55-6.38-8.59-.14-11.79-6.7-11.78-7.52a17,17,0,0,0-2.15,2.2c-5.6-12.08-7.49,2.25-11-4.3-1.42,4.05-2.37,4.1-8.81,2.72,0,.17.05.33.07.5-10.74-3.5-10.57,2.76-19-1.88,1.74,6.76-2.12,6.13.6,8.89-4.7-.06-4.23-5-4.67,2-3.67-3.76-12.7-2.59-10.07,4.31-2.83-3-.71,2.46-6.61-1.6.24,2.51.41,4.34.6,6.44l-4-2.33c-1.82,1.21,4.53,9-4.58,5a10,10,0,0,1,1,4.43,4,4,0,0,0-.78-1.46c-3.41,5.89-1.26-2.36-8.62-2.93-3.26.39-6.81,4.06-2.41-3.54-8.59-.15-11.79-6.7-11.78-7.52a16.26,16.26,0,0,0-2.15,2.2c-5.6-12.08-7.49,2.25-11-4.31-1.42,4.05-2.37,4.11-8.81,2.73l.07.49c-10.74-3.5-10.57,2.77-19-1.87,1.75,6.76-2.12,6.12.6,8.88-4.7-.05-4.23-5-4.67,2-3.66-3.75-12.7-2.59-10.07,4.32-2.83-3-.71,2.46-6.61-1.6.24,2.51.41,4.33.6,6.44l-4-2.34v4.73a3.84,3.84,0,0,1-1.36-1.63c-.57,1.14.63,4-3.22,1.92.2.47.35.89.48,1.29-3.75-3.9.76,3.4-6.08-.48,0,.16.05.32.08.49-5.57-1.81-8.2-1-10.63-.45,1.4-1.66-1.11-5.39,3.72-10.59-.18.53-.29.87-.48,1.42l.94-.38c-1.07-.07,1.72,4.92,3.44,0,2.85,3.29-.14-2.82,2.19-.32,2.09.76,6.78,5.68,1.41-2.4,6.28,2.36-1.59-1.69.11-5-.09-.5,1.55,2.62,1.81.73,8.54,4.46-9.92-13.31-12.21-4.27-1.43-.65-2.15-1.87-3.95-2.24-.21.31,1.62.64.46,1.51l3.68,2.77c1.25.06-8.88-.62-1.48.64-1.28-.16-11.65,5.67-3.16,3.42,5.08-.84-6.85,7.59.85,2.4,1.07.83-4.88,6.63,1.85,2.91.45.06-.19,1.44,1.75.89-1.61-.94,2.78,12.59-9.34,7.05,1.57,6.1-1.4,6.19,0,8.17-12.66-.21-15.09-15.78-14.26-16.42-3.41,5.9-1.25-2.36-8.62-2.93-3.26.4-6.81,4.07-2.4-3.53-8.59-.15-11.79-6.7-11.78-7.52a16.66,16.66,0,0,0-2.15,2.19c-5.61-12.08-7.49,2.25-11-4.3-1.42,4.05-2.37,4.1-8.82,2.73,0,.16.05.32.08.49-10.75-3.5-10.57,2.76-19-1.88,1.74,6.77-2.12,6.13.6,8.89-4.7-.06-4.23-4.95-4.67,2-3.67-3.75-12.71-2.59-10.07,4.32-2.84-3-.72,2.45-6.61-1.61.23,2.52.4,4.34.6,6.45l-4-2.34c-1.83,1.21,4.53,9-4.58,5a10,10,0,0,1,1,4.43,3.86,3.86,0,0,0-.79-1.46c-3.41,5.89-1.25-2.36-8.61-2.93-3.27.4-6.82,4.07-2.41-3.54-8.59-.14-11.79-6.7-11.78-7.52a17,17,0,0,0-2.15,2.2c-5.61-12.08-7.49,2.25-11-4.3-1.42,4.05-2.37,4.1-8.82,2.72l.08.5c-10.75-3.5-10.57,2.76-19-1.88,1.74,6.76-2.12,6.13.6,8.89-4.7-.06-4.23-5-4.67,2-12.3-9.52-5.87,9-16.68,2.71.5,3.23-2.69,2.7-8.41.5,3.54,10.8-9.67,2.26-9.69-1.31a17,17,0,0,0-2.15,2.2c-5.61-12.08-7.49,2.25-11-4.3-1.42,4.05-2.38,4.1-8.82,2.72,0,.17.05.33.08.5-10.75-3.5-10.57,2.76-19.05-1.88,1.75,6.76-2.11,6.13.61,8.89-4.71-.06-4.23-5-4.67,2-11.18-8.47-7.27,7.66-16.68,2.71.07.72.13,1.38.19,2l-2.11-1.23.07.49c-10.74-3.5-10.57,2.77-19-1.87,1.75,6.76-2.12,6.12.6,8.88-4.6,0-4.26-4.92-4.65,1.8-3.69-6.8-5.52,1-10-2.41a11,11,0,0,1-.32,2.17c-2-.11-.47,2.93-8.5.56,0,.16.05.32.08.49-3.17-1.48-13.84.17-10.76-5.19-.09-.5,1.55,2.62,1.81.73,8.54,4.46-9.92-13.31-12.21-4.27-1.43-.65-2.15-1.87-3.95-2.24-.21.31,1.62.64.46,1.51l3.68,2.77c1.25.06-8.88-.62-1.48.64-1.28-.16-11.65,5.67-3.16,3.42,5.08-.84-6.85,7.59.85,2.4,1.07.83-4.88,6.63,1.85,2.91.45.06-.19,1.44,1.75.89-.18.8-.37,1.59-.55,2.37-1.46-.75-.88-1.45-1.4,3-3.67-3.75-12.71-2.59-10.08,4.32-2.83-3-.71,2.45-6.6-1.61.1,1.12.19,2.09.28,3-10.55-9.59-1.84-7.94-5.26-12.34-3.41,5.9-1.25-2.36-8.62-2.93-3.26.4-6.81,4.07-2.4-3.53-8.59-.15-11.79-6.7-11.78-7.52a16.66,16.66,0,0,0-2.15,2.19c-5.61-12.08-7.49,2.25-11-4.3-1.42,4.05-2.37,4.1-8.82,2.73,0,.16.05.32.08.49-10.75-3.5-10.57,2.76-19-1.88,1.74,6.77-2.12,6.13.6,8.89-4.7-.06-4.23-4.95-4.67,2-3.67-3.75-12.71-2.59-10.07,4.32-2.84-3-.72,2.45-6.61-1.61.23,2.52.4,4.34.6,6.45l-4-2.34c-1.83,1.21,4.53,9-4.58,5a10,10,0,0,1,1,4.43,3.86,3.86,0,0,0-.79-1.46c-3.41,5.89-1.25-2.36-8.61-2.93-3.27.4-6.82,4.07-2.41-3.54-8.59-.14-11.79-6.7-11.78-7.52a17,17,0,0,0-2.15,2.2c-5.61-12.08-7.49,2.25-11-4.3-1.42,4.05-2.37,4.1-8.82,2.72l.08.5c-.46-1-7.86,2-7.09-10.06-3.41,5.89-1.25-2.36-8.62-2.93-3.26.4-6.81,4.06-2.4-3.54-8.59-.14-11.79-6.7-11.78-7.52a17,17,0,0,0-2.15,2.2c-5.61-12.08-7.49,2.25-11-4.3-1.42,4.05-2.38,4.1-8.82,2.72,0,.17.05.33.08.5-10.75-3.5-10.57,2.76-19.05-1.88,1.75,6.76-2.11,6.13.61,8.89-4.71-.06-4.23-5-4.67,2-2.17-3.43-13.28-2.21-10.1,2.81-1.58-.91-2.82-1-8.76-4.48.66,0-6.94-.1-5.54-10.51l-1,2.9c-.84-4.74-10.27-9.28-12.4-16.89a17.17,17.17,0,0,0-1.27,2.2c-3.3-12.08-4.41,2.25-6.47-4.3-.88,7.83-3.13-2.51-3.27,4.61-.67-.65-1.29-1.27-1.91-1.89l0,.5c-13.81-13.43-19.56-40.77-32.91-59.67,4.59,1.57,3.8.09,4-1.81,1.58,4.52.72-8.85,6.13-4.49,2.3-6.4-7.8-20.82-5.22-23.16-.34,1-.6,1.7-1,2.9-.85-4.74-10.28-9.28-12.41-16.89a16.21,16.21,0,0,0-1.26,2.2c-3.3-12.08-4.41,2.25-6.47-4.3-.88,7.83-3.13-2.51-3.28,4.61l-1.91-1.89.05.5c-3.1-.7-5.53-1.91-9.35-9,22.9,6,20.15,4.17,20.59,1.54a35,35,0,0,0,12.47-10.57c-18.9-14.91-7-12.06-10.92-17.08-3.41,5.89-1.25-2.36-8.62-2.93-3.26.4-6.81,4.07-2.4-3.54-8.59-.14-11.79-6.7-11.78-7.52A17,17,0,0,0,161,30.4c-5.61-12.08-7.49,2.25-11-4.3-1.42,4-2.38,4.1-8.82,2.72,0,.17.05.33.08.5-10.75-3.5-10.57,2.76-19-1.88,1.75,6.76-2.11,6.13.61,8.89-7.88-.16-35.84-4.31-40-2.57,1-3-.32-14.24,5-19.78-.19.58-.32,1-.52,1.56l1-.42c-1.16-.08,1.89,5.38,3.76,0,3.12,3.59-.14-3.09,2.39-.36,2.3.83,7.43,6.21,1.55-2.62,6.87,2.58-1.74-1.85.12-5.45-.09-.56,1.69,2.85,2,.79C107.49,12.39,87.3-7,84.8,2.84,83.24,2.13,82.45.8,80.49.4c-.24.34,1.76.69.49,1.65l4,3c1.36.07-9.71-.68-1.62.7C82,5.6,70.65,12,79.94,9.51c5.56-.91-7.5,8.29.92,2.63,1.17.9-5.33,7.24,2,3.18.48.06-.21,1.57,1.91,1,.32,2-6.7,27-2.91,13.43C73.3,29.58,70.1,23,70.11,22.2A17,17,0,0,0,68,24.4c-5.61-12.08-7.49,2.25-11-4.3-1.42,4-2.38,4.1-8.82,2.72,0,.17,0,.33.08.5-10.75-3.5-10.57,2.76-19-1.88,1.75,6.76-2.11,6.13.61,8.89-4.71-.06-4.23-5-4.67,2C21.44,28.54,12.4,29.71,15,36.61c-2.83-3-.71,2.46-6.6-1.6.23,2.51.4,4.34.6,6.45L5,39.12c-1.83,1.21,4.53,9-4.59,5a10.24,10.24,0,0,1,1,4.18L0,48.51V594H1920V48.51S1864.12,50.69,1838.85,55.13Z"/><path class="cls-1" d="M1705.41,72.66c0,.28,0,.55,0,.81-.46-.42-.06,0-.74-1.11Z"/><path class="cls-1" d="M1702.38,73.93l1.28,1c.11-1,1-.86,1.67,1.77C1704.65,75.7,1704.64,77.25,1702.38,73.93Z"/><path class="cls-1" d="M1696.06,77.31c.36-.14-.6-1.29,1.47-2.08-.09.55-.14.91-.23,1.48l.86-.53c-.15.28-.61,2.24,3,1.33-.75,2,.72,4.17-4.71.9.12,3.19,2.13,5.81-.84,6.57C1695.72,82.42,1695.91,79.87,1696.06,77.31Z"/><path class="cls-1" d="M1514.87,164.77l0,.06S1514.8,164.84,1514.87,164.77Z"/><path class="cls-1" d="M1576.65,138.85l.39-.13c-.55,1.7-1.68.81-4.08-2C1574.86,137.65,1576.43,138.44,1576.65,138.85Z"/><path class="cls-1" d="M1566.15,132.32a11.9,11.9,0,0,0,2.72,2.12C1567.69,135.28,1564.76,136,1566.15,132.32Z"/><path class="cls-1" d="M1565.53,135.73c-.41-.21-1.48.16-.38-1.34C1565.27,134.84,1565.39,135.28,1565.53,135.73Z"/><path class="cls-1" d="M1488,151.77c-.15.16,0,.13-.5-.21Z"/><path class="cls-1" d="M1436.93,172.33l-.14-.16.23.12Z"/><path class="cls-1" d="M1435.38,166.51a9.75,9.75,0,0,1,.29,2.89C1435.78,168.71,1434.9,168.94,1435.38,166.51Z"/><path class="cls-1" d="M1431.72,160.09l.91-.63c2.8,3.19-2.68,10.7-2-.1Z"/><path class="cls-1" d="M1427.79,160.16a11.32,11.32,0,0,0-1.6.23c.53-1,1.06-1.95,1.61-2.94C1428.29,158.3,1428,159.25,1427.79,160.16Z"/><path class="cls-1" d="M1423.61,157.48c.55-.56,0,.2,2.44-1.89C1432.63,153.05,1419,168.48,1423.61,157.48Z"/><path class="cls-1" d="M1302.65,177.52c-.86-.83-2-.36-.28-3C1302.47,175.52,1302.55,176.49,1302.65,177.52Z"/><path class="cls-1" d="M1078.86,185.29h-.44l.37-.76C1078.81,184.79,1078.84,185,1078.86,185.29Z"/><path class="cls-1" d="M967,188.72c.09.37.46.6,1.73,1.1C983,211.55,962.48,191.93,967,188.72Z"/><path class="cls-1" d="M743.43,198.75c.08.36.45.59,1.72,1.09C744.22,200.67,741.05,203.47,743.43,198.75Z"/><path class="cls-1" d="M514.55,221.18c-.33-.47,2.39-3.17,1.32-.39l.12,0c-.43,2-1.52,2.35.29,4.18C514.8,224.2,512.93,225.3,514.55,221.18Z"/><path class="cls-1" d="M398.43,233.75c.08.36.45.59,1.72,1.09-3.28-.45,9,15.3,2.74,5.88C402.24,241.73,395.35,238.29,398.43,233.75Z"/></g></g></svg>